<svg width="95" height="51" viewBox="0 0 95 51" fill="none" xmlns="http://www.w3.org/2000/svg">
<path d="M76.0186 16.5878C76.0588 16.6417 76.0655 16.7092 76.0387 16.7766C76.032 16.8036 76.0186 16.8238 76.0052 16.844C75.9784 16.8912 75.965 16.9384 75.965 16.9991C75.965 17.0531 75.9516 17.107 75.9449 17.161C75.9449 17.1812 75.9449 17.1947 75.9382 17.2149C75.9382 17.2486 75.9516 17.2688 75.9851 17.2756C75.9851 17.2756 75.9985 17.2756 76.0119 17.2756C76.0253 17.2756 76.0521 17.2756 76.0722 17.2688C76.1258 17.2554 76.1795 17.2419 76.2264 17.2284C76.3135 17.2082 76.3671 17.1542 76.4006 17.0666C76.414 17.0328 76.4207 16.9991 76.4341 16.9654C76.4542 16.8845 76.4408 16.8171 76.3939 16.7496C76.3403 16.6755 76.2867 16.608 76.2264 16.5473C76.1929 16.5136 76.1593 16.4799 76.1325 16.4462C76.0655 16.372 76.0387 16.2844 76.099 16.1832C76.1325 16.1293 76.1124 16.0821 76.0789 16.0349C76.0521 16.0012 76.0253 15.9742 76.0052 15.9405C75.9449 15.8596 75.9114 15.8528 75.8376 15.9068C75.8309 15.9068 75.8175 15.9202 75.8041 15.9337C75.7371 15.9944 75.717 16.0618 75.7438 16.1562C75.784 16.2844 75.8309 16.4125 75.9315 16.4934C75.965 16.5204 75.9985 16.5608 76.032 16.5945L76.0186 16.5878Z" fill="#C6C6C5"/>
<path d="M83.5924 9.99315C83.5924 9.99315 83.5924 9.99315 83.5857 9.99315C83.5857 10.0066 83.5857 10.0201 83.5857 10.0336C83.5723 10.1617 83.6527 10.2494 83.7801 10.2089C83.7868 10.2089 83.8002 10.2089 83.8069 10.1954C83.894 10.155 83.9141 10.0876 83.8605 9.99989C83.8069 9.91223 83.7465 9.83132 83.6862 9.74366C83.6795 9.73017 83.6661 9.71669 83.6527 9.70994C83.6192 9.68297 83.5723 9.70994 83.5723 9.76389C83.5723 9.78412 83.5723 9.80434 83.5723 9.83132C83.5723 9.88526 83.5857 9.9392 83.5924 9.99315Z" fill="#C6C6C5"/>
<path d="M75.6167 17.0598C75.6569 17.0261 75.6837 16.9856 75.7038 16.9317C75.7239 16.871 75.744 16.8036 75.7574 16.7361C75.7641 16.7092 75.7641 16.6755 75.7574 16.6485C75.7574 16.6013 75.7239 16.5743 75.677 16.5811C75.6502 16.5811 75.6234 16.5945 75.5966 16.608C75.5295 16.6417 75.4893 16.7024 75.496 16.7968C75.496 16.8575 75.4893 16.9182 75.4826 16.9789C75.4826 16.9924 75.4826 17.0059 75.4826 17.0194C75.4826 17.08 75.5094 17.107 75.5564 17.1003C75.5765 17.1003 75.6033 17.08 75.6234 17.0666L75.6167 17.0598Z" fill="#C6C6C5"/>
<path d="M69.5576 10.8225C69.5777 10.7618 69.6179 10.7146 69.6649 10.6742C69.6984 10.6472 69.7252 10.627 69.7587 10.5933C69.8123 10.5393 69.8324 10.4854 69.8056 10.4045C69.6313 10.5933 69.4638 10.7955 69.3029 10.9978C69.3029 11.0383 69.3364 11.072 69.3699 11.045C69.4504 10.9844 69.5241 10.9237 69.5643 10.8158L69.5576 10.8225Z" fill="#C6C6C5"/>
<path d="M68.7868 12.0233C68.7868 12.0233 68.827 12.03 68.8538 12.0368C68.9141 12.0571 68.9409 12.0976 68.9208 12.1652C68.9074 12.226 68.8806 12.2868 68.8605 12.3476C68.8538 12.3746 68.8404 12.3881 68.827 12.4151C68.8136 12.4556 68.827 12.4962 68.8605 12.5097C68.8873 12.5165 68.9208 12.5232 68.9543 12.5232C69.0012 12.5232 69.0482 12.5232 69.075 12.5165C69.1956 12.5367 69.2827 12.5165 69.3699 12.4624C69.4235 12.4286 69.4771 12.4151 69.5374 12.4084C69.5642 12.4084 69.5911 12.4084 69.6246 12.4016C69.6447 12.4016 69.6782 12.3881 69.6916 12.3678C69.7519 12.3003 69.7921 12.2192 69.7921 12.1179C69.7921 12.0503 69.7586 12.0098 69.6983 12.0098C69.6447 12.0098 69.5978 12.03 69.5575 12.0638C69.5106 12.0976 69.4637 12.1246 69.4235 12.1584C69.3498 12.2124 69.2626 12.2327 69.1755 12.2395C69.0884 12.2395 68.9811 12.1246 68.9878 12.0233C68.9878 12.003 68.9878 11.976 68.9878 11.9557C68.9878 11.9355 68.9878 11.9084 68.9677 11.8949C68.9141 11.8476 68.8605 11.8003 68.8069 11.7666C68.7801 11.7463 68.7465 11.7801 68.7197 11.8003C68.7063 11.8206 68.6996 11.8341 68.6862 11.8476C68.6795 11.8814 68.6728 11.9219 68.6862 11.9557C68.713 11.9895 68.7465 12.0165 68.7868 12.0233Z" fill="#C6C6C5"/>
<path d="M69.7587 12.7916C69.7587 12.7916 69.752 12.8324 69.7587 12.8528C69.7654 12.8664 69.7721 12.8731 69.7855 12.8799C69.8056 12.9003 69.8391 12.8799 69.8391 12.8528C69.8391 12.8528 69.8391 12.8392 69.8391 12.8324C69.8391 12.8256 69.8391 12.8188 69.8391 12.812C69.8391 12.7916 69.8257 12.7712 69.8056 12.7712C69.7855 12.7712 69.7721 12.7712 69.7587 12.7916Z" fill="#C6C6C5"/>
<path d="M69.3699 11.7665C69.4704 11.7328 69.5709 11.6924 69.6715 11.6587C69.7251 11.6384 69.7787 11.6384 69.8323 11.6587C69.8457 11.6587 69.8591 11.6654 69.8658 11.6721C69.9127 11.6856 69.9597 11.6721 69.9932 11.6317C70.0602 11.5643 70.0535 11.4968 69.9798 11.4361C69.9597 11.4226 69.9396 11.4092 69.9262 11.3889C69.8859 11.3485 69.8926 11.308 69.9329 11.2743C69.953 11.2608 69.9731 11.2473 69.9932 11.2473C70.0803 11.2271 70.1473 11.1664 70.1875 11.0788C70.2211 11.0181 70.2613 10.9641 70.3149 10.9169C70.335 10.8967 70.3618 10.8697 70.3886 10.8495C70.4489 10.7956 70.4825 10.7281 70.516 10.6472C70.5428 10.5798 70.5361 10.5595 70.4892 10.5191C70.4825 10.5191 70.4757 10.5056 70.469 10.4989C70.4355 10.4719 70.4288 10.4382 70.4355 10.391C70.4422 10.364 70.4556 10.337 70.469 10.3168C70.5026 10.2629 70.5562 10.2291 70.6098 10.2224C70.6567 10.2157 70.7036 10.1954 70.7371 10.155C70.7908 10.0808 70.8578 10.0201 70.9047 9.93919C70.9717 9.82456 71.0455 9.73016 71.1393 9.64924C71.1661 9.62901 71.1862 9.60204 71.2063 9.57507C71.327 9.43346 71.4409 9.2986 71.5615 9.157C71.5682 9.14351 71.5816 9.13003 71.5883 9.11654C71.6018 9.09631 71.595 9.07609 71.5883 9.05586C71.5816 9.04237 71.5682 9.03563 71.5615 9.02888C71.528 9.00191 71.5414 8.9682 71.5548 8.93448C71.2465 9.14351 70.9516 9.37278 70.6634 9.61553C70.4758 9.77736 70.2881 9.95268 70.1071 10.128C70.0669 10.1685 70.0334 10.2022 69.9932 10.2426C69.9932 10.2763 69.9932 10.3168 69.9999 10.3505C70.0133 10.3775 70.0334 10.4045 70.0468 10.4314C70.0736 10.4786 70.0937 10.5258 70.1138 10.573C70.1406 10.6405 70.1205 10.7011 70.0736 10.7483C70.0468 10.7821 70.0133 10.7956 69.9731 10.809C69.953 10.809 69.9329 10.8158 69.906 10.8225C69.8524 10.8293 69.8055 10.863 69.772 10.9102C69.7318 10.9574 69.7184 11.0113 69.7452 11.0788C69.772 11.1327 69.7921 11.1866 69.8122 11.2473C69.839 11.308 69.8323 11.335 69.7854 11.3754C69.7184 11.4361 69.6514 11.4631 69.5709 11.4159C69.5709 11.4159 69.5575 11.4159 69.5575 11.4092C69.5173 11.3957 69.5039 11.4024 69.4905 11.4429C69.457 11.5238 69.4034 11.5845 69.3363 11.6317C69.3229 11.6452 69.3028 11.6452 69.2827 11.6587C69.2626 11.6789 69.2425 11.6924 69.2291 11.7193C69.209 11.7598 69.2291 11.807 69.2693 11.807C69.3028 11.807 69.3296 11.807 69.3632 11.7935L69.3699 11.7665Z" fill="#C6C6C5"/>
<path d="M68.4049 13.1495C68.4049 13.2373 68.4384 13.2576 68.4987 13.217C68.5524 13.1765 68.606 13.1292 68.6395 13.0684C68.6663 13.0279 68.6864 12.9873 68.7132 12.9468C68.7266 12.9265 68.7333 12.913 68.74 12.8927C68.7534 12.859 68.74 12.8252 68.6998 12.8319C68.5859 12.8522 68.4987 12.9198 68.4317 13.0279C68.4116 13.0684 68.3982 13.1089 68.3982 13.1562L68.4049 13.1495Z" fill="#C6C6C5"/>
<path d="M80.0671 8.59732C80.1274 8.59732 80.1877 8.62429 80.248 8.65127C80.3083 8.68498 80.3687 8.66475 80.4089 8.60406C80.4625 8.53663 80.5094 8.4692 80.5295 8.3748C80.5429 8.31412 80.5697 8.27366 80.6234 8.24669C80.6703 8.21971 80.677 8.17925 80.6636 8.12531C80.6636 8.11182 80.6502 8.09834 80.6435 8.08485C80.6167 8.03765 80.5764 8.0444 80.5563 8.08485C80.5496 8.10508 80.5429 8.12531 80.5362 8.14554C80.5228 8.23994 80.4625 8.30063 80.4022 8.36132C80.3419 8.41526 80.2614 8.40177 80.2346 8.32086C80.1944 8.19948 80.1207 8.08485 80.1609 7.93651V7.92302C80.1609 7.92302 80.1609 7.91628 80.1609 7.90279C80.1609 7.89605 80.1609 7.88931 80.1609 7.88256C80.1542 7.86908 80.1475 7.84885 80.1341 7.8421C80.1207 7.8421 80.1006 7.8421 80.0939 7.86233C80.0336 7.96348 79.9799 8.06462 80.0403 8.19274C80.0403 8.19948 80.0403 8.21297 80.047 8.22646C80.0671 8.30737 80.0671 8.38155 80.0201 8.45572C80.0201 8.46246 80.0067 8.47595 80.0067 8.48269C79.9933 8.51641 80.0067 8.55686 80.0336 8.57709C80.047 8.57709 80.0537 8.59058 80.0671 8.59058V8.59732Z" fill="#C6C6C5"/>
<path d="M80.6233 11.6991C80.6367 11.7666 80.6233 11.8272 80.6099 11.8879C80.5965 11.9284 80.5831 11.9689 80.5764 12.0093C80.5697 12.0633 80.5563 12.1239 80.5295 12.1711C80.496 12.2588 80.5026 12.2993 80.5697 12.3599C80.6233 12.4004 80.6635 12.4543 80.6903 12.5218C80.7037 12.5487 80.7171 12.569 80.7305 12.596C80.764 12.6364 80.7976 12.6701 80.8445 12.6836C80.8646 12.6836 80.8847 12.6836 80.9048 12.6836C80.9383 12.6701 80.9517 12.6364 80.9383 12.596C80.9249 12.569 80.9115 12.542 80.8981 12.5218C80.8579 12.4746 80.8244 12.4341 80.7841 12.3937C80.7171 12.3262 80.6903 12.2386 80.697 12.1442C80.7104 12.0228 80.7238 11.9082 80.7707 11.8003C80.7908 11.7531 80.811 11.7059 80.811 11.6587C80.8311 11.4901 80.9048 11.362 81.0053 11.2473C81.0657 11.1732 81.126 11.1057 81.1863 11.0316C81.2734 10.9304 81.3606 10.8293 81.441 10.7281C81.4678 10.6944 81.4946 10.654 81.5013 10.6068C81.5147 10.5461 81.4745 10.4921 81.4209 10.4921C81.3874 10.4921 81.3539 10.5191 81.327 10.5461C81.2265 10.6405 81.1126 10.7281 81.0053 10.8023C80.9852 10.8158 80.9718 10.8293 80.9517 10.8495C80.8847 10.9169 80.811 10.9911 80.7372 11.0585C80.6702 11.1192 80.6434 11.1934 80.6568 11.2878C80.6702 11.362 80.6568 11.4294 80.63 11.4968C80.5965 11.5575 80.5898 11.625 80.6032 11.6924L80.6233 11.6991Z" fill="#C6C6C5"/>
<path d="M82.8417 9.1911C82.8886 9.21813 82.9155 9.26542 82.9423 9.31946C82.9691 9.37351 83.0026 9.4208 83.0428 9.46133C83.0897 9.51538 83.1433 9.56942 83.197 9.62347C83.2305 9.664 83.2774 9.69778 83.3243 9.71129C83.3444 9.71805 83.3645 9.71129 83.398 9.71805C83.3913 9.62347 83.3578 9.54916 83.3444 9.46809C83.1433 9.29919 82.9356 9.13706 82.7211 8.98843C82.7211 8.98843 82.7211 8.98843 82.7211 8.99519C82.7412 9.08301 82.7814 9.14381 82.8417 9.1911Z" fill="#C6C6C5"/>
<path d="M77.0912 9.37953C77.0912 9.37953 77.0912 9.44022 77.0912 9.46719C77.0912 9.55485 77.1381 9.61554 77.2118 9.64251C77.2319 9.64925 77.252 9.64925 77.2721 9.65599C77.3123 9.66274 77.3325 9.68971 77.3391 9.73691C77.3458 9.7976 77.3593 9.85828 77.366 9.91897C77.3794 9.97292 77.3794 10.0201 77.3593 10.0673C77.3258 10.1482 77.3391 10.2157 77.3794 10.2831C77.3995 10.3168 77.4196 10.3438 77.4397 10.3775C77.4464 10.391 77.4598 10.4045 77.4732 10.4112C77.5 10.4314 77.5402 10.418 77.5536 10.3842C77.567 10.3573 77.5737 10.3236 77.5804 10.2898C77.6072 10.1482 77.6274 10.0066 77.6542 9.86503C77.6542 9.83131 77.6676 9.80434 77.681 9.77063C77.7145 9.68971 77.7681 9.68297 77.8284 9.73691C77.8619 9.77063 77.882 9.81783 77.8955 9.86503C77.8955 9.892 77.8955 9.92572 77.8955 9.95269C77.8955 9.97966 77.8954 10.0134 77.9089 10.0336C77.9223 10.0741 77.9491 10.101 77.9826 10.101C78.0228 10.101 78.0563 10.0808 78.0697 10.0403C78.0898 9.99314 78.0898 9.9392 78.0697 9.892C78.0563 9.85828 78.0362 9.83131 78.0161 9.80434C77.9759 9.7504 77.9424 9.69645 77.9223 9.62902C77.8955 9.54811 77.8552 9.48068 77.8016 9.42673C77.7413 9.36604 77.7011 9.29862 77.7011 9.20421C77.7011 9.15701 77.681 9.1233 77.6408 9.10307C77.5804 9.0761 77.5469 9.02215 77.5268 8.95472C77.5268 8.94124 77.5201 8.92775 77.5134 8.91426C77.4866 8.84009 77.4531 8.83335 77.3995 8.87381C77.3995 8.87381 77.3995 8.87381 77.3995 8.88055C77.3459 8.93449 77.2855 8.94124 77.2252 8.90752C77.1984 8.89404 77.1716 8.88729 77.1582 8.88055C77.0912 8.88055 77.0576 8.91426 77.0509 8.96821C77.0443 9.02215 77.0509 9.0761 77.0778 9.1233C77.1046 9.20421 77.118 9.28513 77.0979 9.36605L77.0912 9.37953Z" fill="#C6C6C5"/>
<path d="M77.6609 8.77265C77.7145 8.80637 77.7413 8.86706 77.748 8.94123C77.748 8.97494 77.748 9.00866 77.748 9.03563C77.748 9.06935 77.7681 9.08957 77.7949 9.09632C77.8351 9.09632 77.8754 9.10306 77.9156 9.1098C78.0094 9.13003 78.063 9.07609 78.1032 8.98843C78.1233 8.94123 78.1502 8.89403 78.1703 8.84683C78.177 8.8266 78.1904 8.79963 78.1971 8.7794C78.2105 8.7322 78.1971 8.70522 78.1636 8.68499C78.1569 8.68499 78.1435 8.67151 78.1301 8.67151C78.0764 8.65802 78.0362 8.63105 77.996 8.59059C77.9491 8.54339 77.8955 8.52316 77.8284 8.54339C77.7882 8.55688 77.7547 8.54339 77.7212 8.52316C77.7011 8.50968 77.6743 8.49619 77.6542 8.48945C77.6073 8.47596 77.5737 8.50293 77.5603 8.55688C77.5402 8.63779 77.5603 8.71197 77.6207 8.75242C77.6274 8.75917 77.6408 8.76591 77.6542 8.77265H77.6609Z" fill="#C6C6C5"/>
<path d="M79.5711 8.53664C79.5711 8.53664 79.6046 8.59733 79.618 8.63104C79.6381 8.65127 79.6515 8.6715 79.6716 8.69173C79.6917 8.70522 79.7185 8.69173 79.7185 8.66476C79.7185 8.65127 79.7185 8.64453 79.7185 8.63104C79.7118 8.55687 79.7185 8.4827 79.7386 8.40853C79.7386 8.39504 79.7386 8.37481 79.7521 8.34784C79.7386 8.33435 79.7319 8.30738 79.7185 8.29389C79.7051 8.28041 79.685 8.27367 79.6649 8.27367C79.6113 8.27367 79.5644 8.26692 79.5175 8.23321C79.5175 8.23321 79.5041 8.22646 79.4907 8.21972C79.4638 8.20623 79.437 8.21298 79.4169 8.23995C79.3968 8.26692 79.3968 8.30064 79.4169 8.33435C79.4303 8.36132 79.4437 8.38155 79.4638 8.39504C79.5108 8.4355 79.5376 8.4827 79.5644 8.53664H79.5711Z" fill="#C6C6C5"/>
<path d="M80.335 13.1227C80.335 13.1227 80.3551 13.1709 80.3752 13.1709C80.3953 13.1709 80.4088 13.1571 80.4155 13.1296C80.4155 13.1021 80.3953 13.0814 80.3752 13.0814C80.3551 13.0814 80.3417 13.1021 80.3417 13.1227H80.335Z" fill="#C6C6C5"/>
<path d="M69.6113 22.4272C69.5644 22.4138 69.5108 22.4003 69.4639 22.3868C69.417 22.3666 69.3767 22.3328 69.3432 22.2856C69.303 22.225 69.2695 22.1643 69.2628 22.0766C69.2628 22.0496 69.2561 22.0294 69.2494 22.0024C69.236 21.935 69.2025 21.8945 69.1488 21.8676C69.1354 21.8608 69.1153 21.8541 69.0952 21.8406C69.0081 21.7867 68.9143 21.7462 68.8271 21.6855C68.6998 21.5911 68.7065 21.4967 68.7467 21.4023C68.7534 21.3753 68.7668 21.3484 68.7735 21.3214C68.7869 21.2607 68.7601 21.2 68.7065 21.1798C68.6529 21.1596 68.5993 21.1596 68.5523 21.1865C68.5255 21.2 68.5054 21.2337 68.492 21.2674C68.4853 21.2944 68.4786 21.3214 68.4719 21.3484C68.4585 21.4225 68.4116 21.463 68.3446 21.4765C68.2507 21.49 68.1636 21.4765 68.0765 21.436C68.0497 21.4225 68.0295 21.409 68.0027 21.3888C67.8553 21.2607 67.795 21.0786 67.7749 20.8696C67.7749 20.7819 67.7749 20.6943 67.7615 20.6066C67.748 20.5122 67.7749 20.4313 67.8553 20.3909C67.9089 20.3571 67.9692 20.3234 68.0228 20.2965C68.0765 20.2695 68.1301 20.2627 68.1837 20.283C68.2038 20.2897 68.2239 20.2965 68.244 20.3032C68.3245 20.3437 68.4049 20.3369 68.4786 20.2762C68.5456 20.2223 68.6194 20.2155 68.6931 20.2493C68.7668 20.283 68.8405 20.2965 68.9076 20.3167C69.0081 20.3369 69.0952 20.4043 69.1354 20.5257C69.1488 20.5662 69.1623 20.5999 69.1824 20.6336C69.1958 20.6673 69.2226 20.6943 69.2561 20.7145C69.2963 20.7347 69.3365 20.7145 69.3365 20.6606C69.3365 20.6066 69.3298 20.5527 69.303 20.5055C69.2829 20.4718 69.2628 20.4448 69.2427 20.4111C69.2226 20.3774 69.2025 20.3437 69.1824 20.3032C69.1287 20.1751 69.1489 20.0537 69.236 19.9526C69.2494 19.9323 69.2695 19.9188 69.2829 19.8986C69.3566 19.8379 69.4237 19.7705 69.4974 19.7098C69.5577 19.6626 69.5912 19.6087 69.5845 19.521C69.5845 19.5075 69.5845 19.494 69.5845 19.4805C69.5845 19.4266 69.5979 19.3727 69.618 19.3255C69.6448 19.2715 69.6716 19.2108 69.7052 19.1569C69.7387 19.0827 69.7923 19.0355 69.8526 18.9951C69.8727 18.9816 69.8928 18.9748 69.9129 18.9613C69.9732 18.9276 70.0135 18.8804 70.0202 18.7995C70.0269 18.7051 70.0671 18.6377 70.1274 18.577C70.1609 18.5433 70.1877 18.5163 70.2212 18.4826C70.2413 18.4624 70.2682 18.4421 70.295 18.4354C70.3419 18.4084 70.3955 18.4152 70.429 18.4624C70.4357 18.4691 70.4491 18.4826 70.4558 18.4961C70.4826 18.523 70.5094 18.5298 70.543 18.523C70.5698 18.5096 70.5966 18.4961 70.6167 18.4826C70.677 18.4421 70.7373 18.3949 70.8043 18.3545C70.8244 18.3342 70.8513 18.3275 70.8781 18.3073C70.8982 18.2938 70.9049 18.2736 70.9183 18.2466C70.9317 18.2196 70.9116 18.1791 70.8848 18.1859C70.858 18.1859 70.8312 18.1926 70.8043 18.2061C70.744 18.2331 70.6837 18.2331 70.6234 18.2061C70.5497 18.1791 70.5295 18.1387 70.543 18.051C70.543 18.0106 70.5564 17.9701 70.5564 17.9364C70.5564 17.9027 70.543 17.8757 70.5161 17.8555C70.496 17.842 70.4692 17.8285 70.4491 17.815C70.4089 17.7813 70.4089 17.7274 70.4491 17.6937C70.4625 17.6802 70.4893 17.6667 70.5094 17.6667C70.5564 17.6599 70.5966 17.6734 70.6368 17.7004C70.6904 17.7409 70.744 17.7341 70.7976 17.7004C70.8379 17.6802 70.8714 17.6465 70.9049 17.6195C70.9317 17.5993 70.9518 17.5723 70.9719 17.5453C70.9987 17.5183 71.0322 17.4981 71.059 17.4846C71.0993 17.4644 71.1462 17.4846 71.1663 17.5386C71.173 17.5655 71.173 17.5925 71.1663 17.6262C71.1663 17.6599 71.1462 17.6937 71.1395 17.7274C71.1261 17.7543 71.1126 17.7881 71.1059 17.815C71.0858 17.8959 71.106 17.9364 71.1663 17.9769C71.2132 18.0038 71.2534 18.0308 71.2936 18.0713C71.3137 18.0915 71.3405 18.105 71.3606 18.105C71.4277 18.0915 71.488 18.078 71.5483 18.051C71.6019 18.0241 71.6153 17.9431 71.5818 17.8892C71.5684 17.8622 71.5416 17.842 71.5215 17.8218C71.4947 17.8015 71.4679 17.7881 71.4344 17.7746C71.4076 17.7543 71.374 17.7409 71.3472 17.7139C71.2936 17.6667 71.2668 17.5993 71.2869 17.5183C71.3137 17.4104 71.3003 17.3026 71.3003 17.1947C71.3003 17.1205 71.2735 17.0666 71.2132 17.0261C71.1261 16.9587 71.0456 16.8912 70.9585 16.8238C70.8647 16.7496 70.8043 16.6485 70.7842 16.5136C70.7708 16.4597 70.7641 16.399 70.744 16.3451C70.7239 16.2776 70.7105 16.2102 70.6904 16.136C70.677 16.1023 70.6703 16.0686 70.6569 16.0349C70.6234 15.9742 70.5698 15.9742 70.5362 16.0349C70.5161 16.0686 70.5027 16.109 70.4893 16.1428C70.4759 16.19 70.4491 16.2372 70.4156 16.2641C70.3419 16.3383 70.248 16.3383 70.181 16.2574C70.1542 16.2237 70.1341 16.1765 70.1341 16.1293C70.1341 16.0956 70.1341 16.0551 70.1341 16.0214C70.1341 15.9472 70.1073 15.8865 70.047 15.8528C70.0336 15.8528 70.0269 15.8393 70.0135 15.8326C69.9531 15.7989 69.9062 15.7449 69.866 15.6842C69.866 15.6708 69.8526 15.6573 69.8459 15.6505C69.8057 15.5898 69.7454 15.5629 69.6783 15.5764C69.6381 15.5764 69.6046 15.5898 69.5644 15.5898C69.4773 15.6033 69.4371 15.6438 69.4237 15.7449C69.417 15.7854 69.4102 15.8326 69.4102 15.873C69.4102 15.9742 69.3968 16.0686 69.3566 16.1562C69.3298 16.2169 69.3432 16.2709 69.3767 16.3181C69.3901 16.3383 69.4035 16.3585 69.4169 16.372C69.4706 16.4395 69.484 16.5204 69.4773 16.6013C69.4773 16.6687 69.4505 16.7294 69.4169 16.7833C69.3901 16.8238 69.3566 16.8575 69.3298 16.898C69.303 16.9317 69.2762 16.9587 69.2561 16.9991C69.2159 17.0598 69.1958 17.134 69.2226 17.2149C69.236 17.2554 69.2427 17.2891 69.2494 17.3295C69.2494 17.3498 69.2561 17.37 69.2561 17.3902C69.2561 17.4914 69.2025 17.5521 69.1153 17.5453C69.0818 17.5453 69.0483 17.5251 69.0215 17.4981C68.9344 17.4172 68.8741 17.316 68.8942 17.1812C68.8942 17.1677 68.8942 17.1542 68.8942 17.1407C68.9076 17.0666 68.8808 17.0059 68.8271 16.9654C68.7333 16.898 68.6797 16.8036 68.6261 16.6957C68.5993 16.635 68.5657 16.5743 68.5322 16.5204C68.5121 16.4867 68.4853 16.4529 68.4518 16.4327C68.3647 16.372 68.2842 16.3653 68.2038 16.4597C68.177 16.4934 68.1502 16.5339 68.1301 16.5743C68.1033 16.6215 68.0765 16.6755 68.0497 16.7159C68.0295 16.7496 68.0027 16.7766 67.9759 16.7968C67.929 16.8305 67.8821 16.8238 67.8486 16.7766C67.8285 16.7496 67.8151 16.7159 67.8017 16.6822C67.7346 16.4529 67.7749 16.2372 67.862 16.0281C67.8687 16.0079 67.8821 15.9877 67.8955 15.9742C67.9558 15.9068 68.0094 15.8326 68.0698 15.7652C68.1435 15.6842 68.2239 15.6033 68.2976 15.5224C68.3379 15.4752 68.3781 15.428 68.4183 15.3808C68.4652 15.3336 68.5188 15.2931 68.5791 15.2729C68.6127 15.2594 68.6328 15.2729 68.6462 15.3066C68.6596 15.3336 68.6663 15.3606 68.6797 15.3875C68.7065 15.4415 68.7601 15.4482 68.8003 15.4145C68.807 15.4078 68.8204 15.401 68.8271 15.3875C68.8808 15.3066 68.9478 15.2729 69.0282 15.2864C69.0282 15.2864 69.0282 15.2864 69.0349 15.2864C69.0751 15.2864 69.0952 15.2392 69.0684 15.1987C69.055 15.1785 69.0416 15.165 69.0215 15.1448C69.0014 15.1313 68.988 15.1178 68.9679 15.1043C68.8942 15.0437 68.8808 14.9762 68.9344 14.8886C68.9612 14.8414 68.988 14.8009 69.0148 14.7537C69.0617 14.6795 69.0885 14.5986 69.0952 14.5042C69.0952 14.4166 69.1153 14.3424 69.1488 14.2615C69.1488 14.248 69.1623 14.2278 69.1623 14.2075C69.1757 14.1468 69.1623 14.0929 69.122 14.0524C69.1086 14.0389 69.0952 14.0255 69.0818 14.0052C69.055 13.9715 69.0483 13.9311 69.0684 13.8839C69.1086 13.7827 69.2025 13.722 69.303 13.7557C69.3633 13.776 69.4169 13.7692 69.4706 13.722C69.4773 13.722 69.484 13.7085 69.4974 13.7085C69.5912 13.6613 69.6515 13.6816 69.6984 13.7895C69.7253 13.8434 69.7521 13.8973 69.7722 13.9513C69.7856 13.9917 69.8057 14.0322 69.8191 14.0727C69.8392 14.1333 69.8593 14.1873 69.8928 14.2345C69.9263 14.2817 69.9531 14.3356 69.9598 14.3963C69.9598 14.4166 69.9666 14.43 69.9733 14.4503C69.9867 14.4907 70.0135 14.5177 70.047 14.5177C70.0738 14.5177 70.1073 14.5177 70.1341 14.5312C70.1676 14.5379 70.1877 14.5649 70.1944 14.6054C70.2011 14.6526 70.181 14.7132 70.1475 14.7402C70.114 14.7672 70.0738 14.7604 70.0336 14.72C70.0135 14.6998 70.0001 14.6795 69.9799 14.6593C69.9464 14.6256 69.9196 14.6256 69.8861 14.6593C69.8727 14.6795 69.8526 14.7065 69.8392 14.7267C69.8325 14.747 69.8258 14.7672 69.8124 14.7874C69.7856 14.8616 69.7454 14.8953 69.6783 14.9021C69.6515 14.9021 69.6314 14.9021 69.6046 14.9155C69.5376 14.929 69.4907 14.983 69.4706 15.0639C69.4639 15.1043 69.484 15.1313 69.5175 15.1246C69.5376 15.1246 69.551 15.1111 69.5711 15.1043C69.5912 15.0976 69.618 15.0841 69.6381 15.0774C69.6917 15.0571 69.7454 15.0774 69.7856 15.1178C69.8459 15.192 69.9062 15.2662 69.9598 15.3403C70.0135 15.4213 70.0805 15.4617 70.1676 15.4685C70.2279 15.4685 70.2749 15.4685 70.3084 15.401C70.3285 15.3673 70.3553 15.3538 70.3888 15.3606C70.4089 15.3606 70.4357 15.3741 70.4625 15.3741C70.5228 15.3741 70.5765 15.3201 70.5966 15.2594C70.6167 15.192 70.5966 15.1381 70.5497 15.0976C70.5296 15.0774 70.5027 15.0571 70.4826 15.0369C70.4223 14.983 70.3821 14.9088 70.362 14.8211C70.362 14.7874 70.3553 14.7537 70.362 14.7267C70.362 14.666 70.3888 14.6256 70.4424 14.6054C70.4893 14.5919 70.5363 14.6054 70.5698 14.6458C70.5899 14.6728 70.6033 14.6998 70.6167 14.7267C70.6368 14.7604 70.6502 14.7874 70.6703 14.8144C70.7038 14.8548 70.744 14.8481 70.7641 14.8009C70.7909 14.72 70.8111 14.6391 70.8379 14.5582C70.8513 14.5177 70.8379 14.484 70.8178 14.457C70.8044 14.4368 70.7775 14.4233 70.7574 14.4031C70.7306 14.3828 70.7038 14.3559 70.677 14.3356C70.6167 14.2817 70.5631 14.2345 70.5094 14.1805C70.4759 14.1468 70.4357 14.1131 70.4022 14.0794C70.3352 14.0052 70.3218 13.9378 70.3553 13.8367C70.3553 13.8164 70.3687 13.7962 70.3754 13.776C70.3888 13.7355 70.3754 13.6951 70.3486 13.6681C70.3218 13.6479 70.295 13.6344 70.2682 13.6141C70.248 13.6007 70.2279 13.6007 70.2078 13.5939C70.1542 13.5872 70.1274 13.5467 70.1207 13.486C70.1207 13.4725 70.1207 13.4658 70.1207 13.4523C70.1207 13.4051 70.1073 13.3984 70.0671 13.3916C70.0336 13.3916 70.0001 13.3916 69.9665 13.3849C69.9263 13.3781 69.8995 13.3444 69.8928 13.2972C69.8928 13.2702 69.8928 13.2433 69.8928 13.223C69.8928 13.1961 69.8928 13.1624 69.8928 13.1354C69.8794 13.0814 69.866 13.041 69.799 13.0275C69.799 13.0342 69.7856 13.0545 69.7789 13.068C69.7588 13.1017 69.7387 13.1354 69.7186 13.1691C69.6783 13.2298 69.6247 13.2635 69.5577 13.2635C69.4907 13.2635 69.4505 13.223 69.4505 13.1489C69.4505 13.1152 69.4505 13.0814 69.4572 13.0545C69.4572 13.0208 69.4639 12.9803 69.4572 12.9466C69.4572 12.8994 69.4236 12.8724 69.3834 12.8859C69.37 12.8859 69.3566 12.8994 69.3432 12.9061C69.2293 12.987 69.1623 13.0949 69.1824 13.2568V13.277C69.1824 13.3444 69.169 13.4118 69.1623 13.4793C69.1623 13.513 69.1421 13.5467 69.122 13.5737C69.0684 13.6546 68.9746 13.6344 68.9344 13.5467C68.9344 13.5332 68.921 13.513 68.921 13.4928C68.9009 13.3579 68.9076 13.223 68.9746 13.1084C69.0014 13.0612 69.0282 13.0208 69.0617 12.9803C69.0684 12.9601 69.0818 12.9466 69.0885 12.9264C69.0885 12.9129 69.0818 12.8859 69.0617 12.8859C69.0483 12.8859 69.0282 12.8859 69.0148 12.8926C68.9679 12.9129 68.9277 12.9466 68.8942 12.9938C68.8405 13.0814 68.7869 13.1691 68.7333 13.2568C68.7199 13.2837 68.7065 13.3174 68.6998 13.3444C68.6797 13.4388 68.673 13.5265 68.7266 13.6141C68.7467 13.6479 68.7601 13.6883 68.7668 13.722C68.7802 13.7827 68.807 13.8299 68.8472 13.8569C68.8673 13.8704 68.8875 13.8906 68.9076 13.9041C68.9746 13.958 69.0014 14.0255 68.9746 14.1199C68.9612 14.1805 68.9411 14.2345 68.9076 14.2884C68.8606 14.3626 68.8204 14.4368 68.7869 14.5177C68.7668 14.5716 68.7266 14.5986 68.6797 14.6121C68.6194 14.6256 68.5724 14.5986 68.559 14.5244C68.559 14.4907 68.559 14.457 68.559 14.43C68.559 14.3963 68.5791 14.3694 68.559 14.3222C68.5389 14.3222 68.5255 14.3222 68.5121 14.3222C68.4652 14.3356 68.4384 14.3087 68.4183 14.2615C68.4049 14.2345 68.3915 14.2008 68.3714 14.1805C68.3245 14.1199 68.3111 14.0592 68.3177 13.9783C68.3312 13.8839 68.2909 13.8097 68.244 13.7355C68.2239 13.7018 68.1904 13.7018 68.1636 13.7288C68.1368 13.749 68.1234 13.776 68.1234 13.8097C68.1234 13.8434 68.1234 13.8839 68.11 13.9176C68.1033 13.9917 68.11 14.0592 68.177 14.1064C68.2306 14.1536 68.244 14.221 68.2172 14.2884C68.2038 14.3222 68.1904 14.3626 68.1703 14.3963C68.1502 14.43 68.1301 14.4638 68.11 14.4907C68.0698 14.5447 68.0362 14.5986 67.9893 14.6458C67.9156 14.7335 67.8821 14.7267 67.8151 14.6458C67.8084 14.6323 67.795 14.6188 67.7816 14.6121C67.7682 14.6121 67.7614 14.6121 67.7547 14.6256C67.6475 14.72 67.5269 14.747 67.3928 14.747C67.3459 14.747 67.299 14.7335 67.2521 14.7065C66.8834 15.8528 66.669 17.08 66.669 18.3612C66.669 19.2108 66.7628 20.0402 66.9304 20.8426C66.9438 20.8561 66.9639 20.8696 66.9773 20.8831C67.0711 20.9573 67.1314 21.0517 67.1649 21.173C67.1783 21.2337 67.2119 21.2742 67.2521 21.3079C67.3526 21.3888 67.4531 21.463 67.5738 21.4967C67.681 21.5304 67.7816 21.5776 67.8754 21.6451C67.9424 21.699 68.0161 21.7125 68.0966 21.6788C68.1636 21.6518 68.2306 21.6585 68.2909 21.6923C68.358 21.726 68.425 21.7597 68.4786 21.8069C68.5657 21.8743 68.6529 21.9283 68.7467 21.9552C68.8338 21.9755 68.8942 22.0361 68.9411 22.1103C68.9746 22.1575 69.0081 22.2047 69.0483 22.2452C69.1555 22.3598 69.2829 22.434 69.4102 22.5216C69.4437 22.5419 69.484 22.5486 69.5175 22.5419C69.551 22.5419 69.5845 22.5216 69.5912 22.4812C69.5912 22.4744 69.5912 22.461 69.5778 22.461C69.5644 22.4542 69.551 22.4475 69.5309 22.4407L69.6113 22.4272Z" fill="#C6C6C5"/>
<path d="M80.6903 24.3895C80.6903 24.3895 80.6635 24.4164 80.6501 24.4367C80.5764 24.5783 80.4691 24.6929 80.382 24.8278C80.3351 24.9019 80.2949 24.9694 80.2949 25.0638C80.2949 25.1649 80.2614 25.2526 80.2279 25.3402C80.2078 25.3874 80.201 25.4346 80.1944 25.4616C80.201 25.5695 80.2078 25.6572 80.2145 25.7448C80.2145 25.7583 80.2145 25.765 80.2212 25.7785C80.2346 25.819 80.2681 25.8392 80.3016 25.8122C80.3284 25.792 80.3552 25.765 80.3753 25.7313C80.4356 25.6099 80.5027 25.4886 80.5295 25.347C80.563 25.1851 80.6166 25.0301 80.6702 24.875C80.7037 24.7738 80.7372 24.6727 80.7641 24.5648C80.7775 24.5176 80.7775 24.4704 80.7775 24.4232C80.7775 24.3962 80.7641 24.376 80.7439 24.3625C80.7171 24.3558 80.697 24.3625 80.6836 24.3827L80.6903 24.3895Z" fill="#C6C6C5"/>
<path d="M75.0403 14.484C75.0671 14.43 75.0671 14.3828 75.0403 14.3289C75.0202 14.2952 74.9933 14.2547 74.9732 14.2277C74.9062 14.1536 74.8459 14.1468 74.7722 14.2075C74.7454 14.2277 74.7319 14.248 74.7051 14.2682C74.618 14.3221 74.5376 14.3356 74.4504 14.2682C74.4303 14.2547 74.4035 14.2345 74.3767 14.221C74.3499 14.2075 74.3298 14.2143 74.3097 14.2345C74.2896 14.2547 74.2762 14.2749 74.2628 14.3019C74.2293 14.3896 74.236 14.4705 74.2762 14.5514C74.303 14.6054 74.3432 14.6526 74.3767 14.7065C74.4035 14.7537 74.4437 14.7807 74.4907 14.7874C74.5175 14.7874 74.5443 14.7874 74.551 14.7942C74.7722 14.7942 74.9129 14.6593 75.0403 14.4907C75.0403 14.4907 75.0403 14.4907 75.0403 14.484Z" fill="#C6C6C5"/>
<path d="M74.2223 12.8319C74.2223 12.8319 74.2491 12.8724 74.2625 12.8926C74.2759 12.9129 74.2759 12.9398 74.2893 12.9601C74.3094 13.0073 74.3363 13.014 74.3765 12.9938C74.4703 12.9466 74.4971 12.8319 74.4234 12.7308C74.3564 12.6364 74.296 12.5353 74.2156 12.4476C74.1285 12.3532 74.1419 12.252 74.2424 12.1846C74.3161 12.1307 74.3899 12.0835 74.4569 12.0363C74.4569 12.0363 74.4703 12.0295 74.4703 12.0228C74.5038 11.9958 74.5105 11.9688 74.4971 11.9216C74.4904 11.9014 74.477 11.8744 74.4703 11.8542C74.4435 11.7868 74.4569 11.7261 74.5038 11.6789C74.5239 11.6587 74.544 11.6452 74.5641 11.6249C74.5842 11.598 74.5976 11.5643 74.5842 11.5238C74.5708 11.4901 74.5574 11.4564 74.544 11.4227C74.5239 11.362 74.5239 11.308 74.5641 11.2608C74.5641 11.2541 74.5708 11.2406 74.5775 11.2339C74.6043 11.1934 74.611 11.1462 74.5909 11.1057C74.5775 11.072 74.5574 11.0383 74.5373 11.0046C74.5239 10.9844 74.5105 10.9641 74.4971 10.9439C74.4569 10.8765 74.4569 10.8023 74.4971 10.7281C74.5038 10.7079 74.5172 10.6944 74.5306 10.6742C74.5641 10.627 74.6043 10.6 74.658 10.6068C74.6848 10.6068 74.7116 10.6068 74.7317 10.6068C74.7652 10.6068 74.7786 10.5798 74.7853 10.5393C74.7853 10.4989 74.7786 10.4584 74.7518 10.4314C74.7116 10.3775 74.6647 10.3236 74.6178 10.2763C74.5708 10.2224 74.5641 10.155 74.5842 10.0875C74.5842 10.0673 74.5976 10.0538 74.6043 10.0403C74.6311 9.97966 74.6446 9.91897 74.6379 9.85154C74.6379 9.83805 74.6379 9.83131 74.6379 9.81783C74.6312 9.73691 74.6513 9.66948 74.6982 9.60879C74.6982 9.60205 74.7116 9.59531 74.7183 9.58182C74.7585 9.53462 74.7853 9.47393 74.792 9.4065C74.792 9.36604 74.8054 9.31884 74.8121 9.27838C74.8322 9.19747 74.8389 9.1233 74.8121 9.04238C74.792 8.94798 74.8121 8.89403 74.8993 8.86032C74.9194 8.85357 74.9328 8.84683 74.9529 8.84683C75.0467 8.8266 75.0869 8.75243 75.04 8.65129C75.04 8.64454 75.0333 8.63106 75.0266 8.62431C75.0065 8.56363 75.0132 8.53665 75.0601 8.48945C75.0802 8.46922 75.107 8.45574 75.1271 8.42877C75.1606 8.39505 75.1942 8.36134 75.221 8.32088C75.2746 8.23996 75.3148 8.1523 75.3684 8.07139C75.4153 7.99721 75.4153 7.92304 75.3818 7.84887C75.3684 7.8219 75.355 7.79492 75.3416 7.77469C75.3014 7.70726 75.2411 7.70052 75.1942 7.76121C75.1674 7.79492 75.1405 7.83538 75.1271 7.87584C75.0802 7.97698 75.0132 8.04441 74.9194 8.08487C74.8724 8.1051 74.8188 8.13207 74.7786 8.17253C74.7786 8.17253 74.7652 8.17253 74.7518 8.17927C74.725 8.13207 74.725 8.13207 74.725 8.11185C74.7317 8.05116 74.7384 7.99047 74.7451 7.92978C74.7451 7.89607 74.7518 7.86235 74.7518 7.83538C74.7518 7.8219 74.7384 7.80167 74.7317 7.79492C74.725 7.79492 74.7049 7.79492 74.6982 7.80167C74.6781 7.8219 74.6513 7.84887 74.6312 7.87584C74.6043 7.90281 74.5708 7.92304 74.5306 7.92978C74.4971 7.92978 74.477 7.90281 74.4569 7.88258C74.4569 7.88258 74.4569 7.88258 74.4502 7.87584C74.4234 7.84887 74.3899 7.84887 74.3631 7.8691C74.3295 7.89607 74.296 7.92304 74.2625 7.95001C74.2156 7.99047 74.1687 8.03767 74.1218 8.07139C74.1017 8.09162 74.0749 8.09836 74.048 8.1051C74.0145 8.11185 73.9877 8.08487 73.9877 8.04441C73.9877 8.01744 73.9944 7.98373 74.0078 7.9635C74.1084 7.80167 74.229 7.67355 74.4167 7.68704C74.4569 7.68704 74.4971 7.67355 74.5306 7.64658C74.5641 7.61961 74.6043 7.59263 74.6446 7.56566C74.6848 7.53869 74.7116 7.49823 74.7451 7.46452C74.2759 7.57915 73.8269 7.73424 73.3845 7.9163C73.2773 7.95676 73.17 7.99721 73.0695 8.04441C73.0159 8.06464 72.969 8.09836 72.922 8.11859C72.8818 8.13882 72.8416 8.15905 72.8014 8.17927C72.6003 8.28042 72.3993 8.37482 72.2049 8.48945C72.1915 8.50294 72.1848 8.51643 72.1714 8.52317C72.1312 8.55014 72.111 8.5906 72.111 8.65129C72.111 8.67826 72.111 8.71197 72.1043 8.73894C72.1043 8.84683 72.0507 8.93449 71.9703 8.98843C71.8899 9.04238 71.8295 9.12329 71.7759 9.20421C71.7156 9.29861 71.6419 9.37279 71.5614 9.44696C71.5413 9.46719 71.5145 9.48742 71.4944 9.50765C71.4743 9.52788 71.4609 9.55485 71.4475 9.58856C71.4274 9.63576 71.4475 9.67622 71.4877 9.68296C71.5145 9.68296 71.5413 9.68296 71.5682 9.68971C71.5883 9.68971 71.6084 9.71668 71.6084 9.74365C71.6084 9.76388 71.6084 9.77737 71.6017 9.7976C71.5749 9.86503 71.5547 9.9392 71.5212 10.0066C71.4676 10.101 71.4073 10.1887 71.3135 10.2426C71.1459 10.337 71.0118 10.4921 70.8577 10.6202C70.8577 10.6202 70.8577 10.6202 70.8577 10.627C70.8041 10.6877 70.7974 10.7349 70.8309 10.809C70.851 10.8495 70.8711 10.89 70.8845 10.9372C70.918 11.0316 70.8979 11.1125 70.8443 11.1867C70.8242 11.2136 70.8041 11.2339 70.784 11.2541C70.6968 11.3283 70.784 11.598 70.8778 11.6182C70.8912 11.6182 70.9113 11.6182 70.9247 11.6249C70.9917 11.6317 71.0521 11.6115 71.1057 11.571C71.1325 11.5508 71.1593 11.5238 71.1928 11.5036C71.2799 11.4429 71.3738 11.4361 71.4609 11.5036C71.4877 11.5238 71.5145 11.5508 71.5413 11.571C71.6486 11.6587 71.6955 11.78 71.6754 11.9351C71.662 12.0026 71.6754 12.07 71.6888 12.1374C71.7022 12.1914 71.7089 12.2453 71.7089 12.2992C71.7089 12.3734 71.729 12.4409 71.7692 12.5015C71.8161 12.5825 71.8161 12.6634 71.7826 12.751C71.7692 12.778 71.7625 12.805 71.7491 12.8252C71.7424 12.8454 71.7357 12.8657 71.729 12.8859C71.729 12.9129 71.7424 12.9398 71.7692 12.9331C71.796 12.9263 71.8295 12.9129 71.8564 12.9061C71.9301 12.8926 71.9703 12.9196 71.9971 12.9938C72.0239 13.0545 72.0306 13.1152 72.0306 13.1826C72.0306 13.2298 72.0105 13.2702 71.9837 13.3107C71.9569 13.3377 71.9234 13.3309 71.8966 13.3309C71.8429 13.3242 71.8027 13.3512 71.7759 13.4118C71.7625 13.4388 71.7558 13.4725 71.7424 13.4995C71.7424 13.5197 71.7424 13.5332 71.7424 13.5534C71.7424 13.6074 71.796 13.6276 71.8363 13.5939C71.8497 13.5804 71.8631 13.5534 71.8765 13.5332C71.8966 13.5062 71.91 13.4725 71.9301 13.4456C71.9636 13.3984 72.0105 13.4051 72.044 13.4523C72.0574 13.4725 72.0574 13.5062 72.0641 13.5332C72.0641 13.5804 72.0507 13.6276 72.0239 13.6613C71.9502 13.776 71.8966 13.9041 71.796 13.9917C71.7692 14.012 71.7558 14.0457 71.7357 14.0727C71.7089 14.1131 71.6955 14.1671 71.7022 14.2143C71.7156 14.3761 71.7491 14.5312 71.8698 14.6323C71.8899 14.6526 71.91 14.6728 71.9301 14.6998C71.977 14.7604 71.977 14.8076 71.9435 14.8751C71.9301 14.8953 71.9167 14.9155 71.9033 14.9358C71.8765 14.983 71.8832 15.0234 71.9033 15.0706C71.9167 15.0976 71.9368 15.1246 71.9569 15.1448C71.9904 15.1853 72.0239 15.2257 72.0574 15.2729C72.0775 15.3066 72.1043 15.3403 72.111 15.3741C72.1311 15.5089 72.1982 15.5831 72.2987 15.637C72.3926 15.6842 72.4194 15.6842 72.4395 15.5629C72.4529 15.5089 72.4596 15.4482 72.4797 15.3943C72.4998 15.3403 72.5199 15.2864 72.54 15.2392C72.5668 15.1853 72.5936 15.1313 72.6204 15.0774C72.6405 15.0437 72.6606 15.0167 72.6875 14.983C72.7277 14.9223 72.7545 14.8548 72.7612 14.7739C72.7746 14.6121 72.8483 14.4907 72.9556 14.3896C73.0025 14.3424 73.0561 14.3087 73.1097 14.2682C73.1432 14.2412 73.1901 14.2143 73.2169 14.1805C73.3175 14.0659 73.418 13.9513 73.4783 13.8029C73.5051 13.7288 73.5588 13.6816 73.6258 13.6681C73.6995 13.6479 73.7598 13.6141 73.8202 13.5669C73.9274 13.4793 74.0413 13.3916 74.1553 13.304C74.1754 13.2837 74.1955 13.2702 74.2089 13.25C74.2223 13.2298 74.2357 13.2096 74.2424 13.1893C74.2558 13.1556 74.2424 13.1286 74.2089 13.1286C74.1687 13.1286 74.1285 13.1286 74.0883 13.1286C74.0145 13.1219 73.9877 13.0612 74.0078 12.9803C74.0279 12.9061 74.0682 12.8522 74.1151 12.805C74.1553 12.7645 74.2156 12.7713 74.2491 12.8185L74.2223 12.8319Z" fill="#C6C6C5"/>
<path d="M68.6997 12.489C68.6997 12.489 68.7064 12.455 68.6997 12.4414C68.6863 12.4073 68.6595 12.3869 68.626 12.3869C68.559 12.3869 68.4987 12.455 68.492 12.5299C68.492 12.5911 68.5188 12.6183 68.5657 12.6047C68.6193 12.5843 68.6595 12.5435 68.693 12.4958L68.6997 12.489Z" fill="#C6C6C5"/>
<path d="M73.532 23.9512C73.4918 23.9242 73.4449 23.8972 73.4047 23.8568C73.3176 23.7826 73.2304 23.7422 73.1165 23.7489C72.9891 23.7556 72.8819 23.7017 72.7948 23.6073C72.7747 23.5871 72.7546 23.5601 72.7278 23.5466C72.7076 23.5264 72.6808 23.5129 72.6473 23.5196C72.6205 23.5196 72.6004 23.5399 72.5736 23.5466C72.5401 23.5601 72.4999 23.5803 72.4664 23.5736C72.3926 23.5601 72.3256 23.5331 72.2586 23.5129C72.2318 23.5061 72.2251 23.4724 72.2251 23.4387C72.2251 23.4252 72.2251 23.4117 72.2251 23.3983C72.2653 23.2971 72.2251 23.2027 72.1782 23.1218C72.1312 23.0409 72.0977 23.0409 72.0374 23.1218C72.0374 23.1285 72.024 23.1353 72.0173 23.1488C71.9905 23.1825 71.957 23.2027 71.9235 23.2095C71.8698 23.2162 71.8162 23.2229 71.7626 23.2095C71.7023 23.196 71.6554 23.1555 71.6353 23.0881C71.6152 23.0341 71.595 22.9734 71.5883 22.9128C71.5682 22.7914 71.5146 22.7105 71.4342 22.643C71.3538 22.5756 71.2733 22.5014 71.2197 22.4003C71.1996 22.3598 71.1661 22.3396 71.1259 22.3329C71.032 22.3126 70.9382 22.2924 70.8511 22.2722C70.7975 22.2587 70.7438 22.2452 70.6969 22.225C70.6433 22.2047 70.5964 22.1913 70.5428 22.1913H70.4422C70.402 22.1913 70.3551 22.1913 70.3082 22.1913C70.2613 22.1913 70.221 22.2047 70.1808 22.2182C70.1071 22.2317 70.0535 22.2722 70.0133 22.3464C69.9865 22.4003 69.9463 22.4408 69.8926 22.461C69.8859 22.461 69.8725 22.4677 69.8658 22.4812C69.8457 22.4947 69.839 22.5217 69.8524 22.5486C69.8658 22.5689 69.8859 22.5958 69.8993 22.6161C69.9194 22.643 69.9463 22.6768 69.9597 22.7105C69.9999 22.7846 69.9999 22.8588 69.9597 22.933C69.9396 22.9735 69.9194 23.0004 69.8993 23.0409C69.8725 23.0881 69.8457 23.1353 69.8256 23.1825C69.7988 23.2567 69.7921 23.3308 69.8256 23.405C69.8591 23.4859 69.8725 23.5736 69.8524 23.668C69.8323 23.7489 69.8524 23.8163 69.9127 23.877C69.9328 23.8972 69.953 23.9242 69.9731 23.9444C70.1004 24.0726 70.2009 24.2142 70.268 24.3895C70.3149 24.5109 70.3752 24.612 70.4556 24.6997C70.4958 24.7469 70.5294 24.7941 70.583 24.8278C70.6768 24.8885 70.764 24.9492 70.8645 25.0031C70.9717 25.0638 71.0521 25.1582 71.0924 25.293C71.146 25.4616 71.2063 25.6302 71.2264 25.8123C71.2264 25.819 71.2264 25.8257 71.2264 25.8325C71.2532 25.9269 71.2599 26.0145 71.2532 26.1089C71.2532 26.1696 71.2532 26.2303 71.28 26.2843C71.3068 26.345 71.3202 26.4124 71.3202 26.4866C71.3202 26.5607 71.3404 26.6282 71.3672 26.6956C71.4007 26.763 71.4208 26.8372 71.4275 26.9114C71.4275 26.9788 71.4342 27.0462 71.4275 27.1137C71.4275 27.1946 71.4409 27.2687 71.4677 27.3429C71.528 27.5047 71.5548 27.6868 71.595 27.8554C71.8162 28.0037 72.0441 28.1521 72.272 28.2802C72.2921 28.2262 72.3055 28.1723 72.2988 28.1184C72.2988 28.0779 72.2854 28.0307 72.272 27.9902C72.2586 27.943 72.2586 27.9026 72.272 27.8621C72.2921 27.8082 72.3055 27.7542 72.3189 27.6936C72.3256 27.6329 72.3591 27.5992 72.4127 27.5857C72.4395 27.5857 72.4597 27.5722 72.4865 27.5654C72.5669 27.5385 72.6004 27.471 72.5803 27.3766C72.5803 27.3429 72.5602 27.3159 72.5535 27.2822C72.5401 27.2081 72.5535 27.1676 72.6138 27.1339C72.6205 27.1339 72.6272 27.1271 72.6406 27.1204C72.7076 27.0934 72.7479 27.0327 72.7747 26.9518C72.8149 26.8035 72.8551 26.6551 72.902 26.5068C72.9221 26.4394 72.9288 26.3719 72.9154 26.3045C72.9154 26.2775 72.9087 26.2573 72.902 26.2303C72.8819 26.1022 72.9221 26.0011 73.0093 25.9269C73.0428 25.8999 73.083 25.8729 73.1232 25.8595C73.1768 25.8392 73.2237 25.8257 73.2774 25.8123C73.3444 25.7988 73.3846 25.7516 73.398 25.6774C73.4047 25.6302 73.4181 25.5763 73.4315 25.5291C73.4583 25.4616 73.465 25.3942 73.4583 25.32C73.4516 25.1784 73.4382 25.0368 73.4114 24.902C73.3913 24.8008 73.4114 24.7064 73.465 24.6255C73.4851 24.5985 73.5052 24.5783 73.5186 24.5513C73.5589 24.4906 73.5991 24.4299 73.6326 24.3693C73.6795 24.2816 73.6728 24.1939 73.6259 24.113C73.5924 24.0523 73.5387 24.0051 73.4851 23.9714L73.532 23.9512Z" fill="#C6C6C5"/>
<path d="M86.2265 22.9804C86.1595 22.9804 86.0925 22.9667 86.0255 22.9667C85.9719 22.9667 85.9182 22.9804 85.8713 23.0146C85.8646 23.0146 85.8579 23.0352 85.8512 23.0488C85.8646 23.0557 85.8713 23.0625 85.8847 23.0625C86.0054 23.0625 86.126 23.0488 86.2467 23.0488C86.2467 23.0488 86.2601 23.0488 86.2668 23.0488C86.2668 23.0488 86.2735 23.0352 86.2802 23.0215C86.2802 23.0215 86.2802 23.0078 86.2735 23.0009C86.2601 23.0009 86.2467 22.9872 86.24 22.9872L86.2265 22.9804Z" fill="#C6C6C5"/>
<path d="M86.7358 21.726C86.7358 21.726 86.6822 21.7664 86.6621 21.7934C86.5884 21.8743 86.5348 21.9687 86.4945 22.0766C86.4543 22.1845 86.3873 22.2519 86.2868 22.2789C86.2332 22.2924 86.1795 22.2924 86.1259 22.2789C86.0991 22.2722 86.0723 22.2654 86.0455 22.2587C86.0254 22.2587 86.0053 22.2789 86.0053 22.3059C86.0053 22.3261 86.0053 22.3396 86.0187 22.3598C86.0455 22.4273 86.0857 22.4879 86.1326 22.5284C86.1594 22.5486 86.1862 22.5689 86.213 22.5756C86.2868 22.5891 86.3605 22.5958 86.4409 22.6093C86.5012 22.6093 86.5348 22.5891 86.575 22.5217C86.6018 22.4677 86.6286 22.4138 86.6554 22.3598C86.709 22.2317 86.776 22.1036 86.7827 21.9552C86.7827 21.9148 86.8029 21.8878 86.823 21.8608C86.8364 21.8406 86.8498 21.8204 86.8632 21.8002C86.8766 21.7799 86.8833 21.753 86.8699 21.726C86.8632 21.7058 86.8364 21.6923 86.8028 21.699C86.7827 21.699 86.7559 21.7125 86.7358 21.726Z" fill="#C6C6C5"/>
<path d="M87.4263 18.2938C87.4129 16.0888 86.8029 14.039 85.7708 12.3127C85.7574 12.306 85.7507 12.2993 85.7373 12.2925C85.6769 12.2453 85.6032 12.2116 85.5295 12.1914C85.4356 12.1644 85.3619 12.1105 85.3016 12.0295C85.2815 12.0093 85.2681 11.9891 85.248 11.9689C85.2212 11.9486 85.1944 11.9486 85.1675 11.9689C85.1541 11.9891 85.134 12.0161 85.1206 12.0363C85.1005 12.07 85.0804 12.1105 85.0603 12.1442C85.0268 12.2049 84.9799 12.2521 84.9196 12.2858C84.886 12.306 84.8458 12.3127 84.8123 12.2858C84.7721 12.2521 84.7587 12.2116 84.7721 12.1577C84.7855 12.1037 84.8056 12.0565 84.8257 12.0093C84.8391 11.9689 84.8659 11.9284 84.8793 11.8879C84.9129 11.807 84.9531 11.7261 85.0134 11.6654C85.0737 11.6047 85.0804 11.5306 85.0536 11.4362C85.0067 11.2743 84.9128 11.153 84.7989 11.0518C84.7252 10.9911 84.6448 10.9507 84.5576 10.9507C84.5107 10.9507 84.4638 10.9304 84.4236 10.8967C84.4035 10.8765 84.3767 10.8563 84.3566 10.836C84.2962 10.7686 84.2426 10.7079 84.1957 10.6203C84.1622 10.5528 84.1086 10.5056 84.0348 10.4989C83.9879 10.4989 83.941 10.4989 83.9142 10.5393C83.8874 10.5798 83.9008 10.627 83.9142 10.6742C83.9276 10.7012 83.941 10.7214 83.9477 10.7484C83.9812 10.8293 83.9678 10.8697 83.9075 10.9102C83.8807 10.9304 83.8472 10.9507 83.8204 10.9709C83.7735 11.0113 83.7265 11.0046 83.6796 10.9709C83.6528 10.9507 83.6327 10.9372 83.6126 10.9169C83.5724 10.9372 83.5724 10.9776 83.559 11.0113C83.5389 11.072 83.5054 11.1058 83.4517 11.1192C83.4249 11.1192 83.3981 11.1327 83.3646 11.1327C83.2976 11.1395 83.244 11.1732 83.2037 11.2339C83.1769 11.2743 83.1434 11.3215 83.1166 11.362C83.0697 11.4429 83.0697 11.5036 83.1233 11.5778C83.1434 11.6047 83.1635 11.6317 83.1836 11.6587C83.2104 11.6924 83.2239 11.7328 83.2306 11.7733C83.2373 11.8407 83.2104 11.8879 83.1501 11.8879C83.1166 11.8879 83.0898 11.8812 83.0563 11.8812C83.0094 11.8812 82.9625 11.8677 82.9155 11.8745C82.7949 11.8879 82.7547 11.9756 82.8083 12.1037C82.8351 12.1644 82.8753 12.2251 82.9021 12.2925C82.9155 12.3262 82.9289 12.3599 82.9356 12.3937C82.9423 12.4341 82.9155 12.4678 82.882 12.4543C82.8485 12.4409 82.815 12.4274 82.7882 12.4071C82.7212 12.3599 82.6609 12.3127 82.5938 12.2723C82.5469 12.2386 82.5 12.2251 82.4531 12.2318C82.4263 12.2318 82.3995 12.2453 82.386 12.2723C82.3525 12.333 82.3257 12.3869 82.2989 12.4543C82.2788 12.4948 82.2788 12.542 82.2922 12.5825C82.2989 12.6229 82.3123 12.6634 82.3324 12.6904C82.3793 12.7713 82.4062 12.8589 82.4129 12.9533C82.4129 13.014 82.4397 13.068 82.4799 13.1017C82.5402 13.1489 82.567 13.2096 82.5871 13.2905C82.5938 13.3444 82.6139 13.3984 82.6206 13.4456C82.6474 13.5939 82.6139 13.722 82.5268 13.8299C82.4799 13.8839 82.4196 13.9311 82.3659 13.9715C82.3458 13.985 82.3123 13.9918 82.2855 13.9985C82.2386 13.9985 82.1984 13.9648 82.185 13.9176C82.1716 13.8636 82.185 13.8164 82.2185 13.7827C82.2386 13.7692 82.2587 13.749 82.2855 13.7423C82.3525 13.7153 82.3793 13.6546 82.386 13.5737C82.386 13.54 82.386 13.5063 82.386 13.4793C82.3726 13.3849 82.3525 13.2972 82.3391 13.2028C82.3324 13.1624 82.3123 13.1219 82.2989 13.0814C82.2721 13.0208 82.252 12.9533 82.2386 12.8859C82.2185 12.805 82.2051 12.7241 82.1783 12.6432C82.1381 12.5353 82.118 12.4341 82.1247 12.3127C82.1381 12.1846 82.0844 12.0835 82.0107 11.9891C81.9571 11.9217 81.9035 11.9351 81.8767 12.0228C81.8767 12.043 81.87 12.0633 81.8633 12.0835C81.8633 12.1172 81.8633 12.1509 81.8633 12.1779C81.8633 12.3195 81.8566 12.4543 81.7828 12.5757C81.756 12.6162 81.756 12.6701 81.7694 12.7241C81.7828 12.7645 81.7962 12.8117 81.8163 12.8522C81.8499 12.9264 81.8968 12.987 81.9504 13.0477C81.9973 13.0949 82.0375 13.1556 82.071 13.2163C82.0911 13.25 82.1045 13.2972 82.0777 13.3377C82.0509 13.3849 82.0107 13.3849 81.9705 13.3714C81.9303 13.3579 81.8901 13.3444 81.8566 13.3175C81.8096 13.277 81.7627 13.2365 81.7158 13.1893C81.6689 13.1421 81.6287 13.1017 81.5818 13.0545C81.5013 12.9736 81.4075 12.9466 81.307 12.9264C81.2667 12.9196 81.2533 12.9466 81.2667 12.9938C81.2802 13.0275 81.2936 13.0612 81.307 13.0882C81.3137 13.1084 81.3271 13.1354 81.3338 13.1556C81.3472 13.2096 81.3204 13.2568 81.2735 13.2635C81.2466 13.2635 81.2131 13.2635 81.1863 13.2635C81.1327 13.2635 81.0791 13.25 81.0255 13.25C80.9517 13.2433 80.878 13.25 80.8311 13.3309C80.8311 13.3309 80.8311 13.3309 80.8311 13.3377C80.811 13.3579 80.7909 13.3579 80.7641 13.3377C80.7574 13.3309 80.744 13.3175 80.7373 13.3107C80.7038 13.2635 80.6367 13.2703 80.5965 13.304C80.5697 13.3309 80.5429 13.3647 80.5161 13.3916C80.4558 13.486 80.3954 13.5804 80.3351 13.6681C80.3217 13.6883 80.3083 13.7018 80.2949 13.7153C80.2614 13.7423 80.2279 13.7557 80.1877 13.749C80.1474 13.7423 80.1206 13.7153 80.1206 13.6681C80.1206 13.6344 80.1206 13.5939 80.1273 13.5602C80.1273 13.5265 80.134 13.486 80.134 13.4523C80.134 13.4051 80.0938 13.3647 80.0536 13.3647C80.0335 13.3647 80.0067 13.3781 80 13.4051C80 13.4321 80 13.4523 80 13.4793C80 13.5063 80.0067 13.54 80.0134 13.5669C80.0134 13.6276 80.0268 13.6883 80.0536 13.7423C80.067 13.7625 80.067 13.7962 80.067 13.8232C80.067 13.8906 80.0268 13.9243 79.9665 13.9176C79.9464 13.9176 79.9196 13.9041 79.8995 13.9108C79.8793 13.9108 79.8525 13.9108 79.8391 13.9311C79.7788 13.9918 79.7252 14.0592 79.7252 14.1603C79.7252 14.194 79.7252 14.2278 79.7185 14.2547C79.7051 14.3289 79.6783 14.3491 79.618 14.3559C79.6046 14.3559 79.5844 14.3559 79.571 14.3559C79.5442 14.3559 79.5241 14.3694 79.5107 14.4031C79.5107 14.4166 79.5107 14.4233 79.504 14.4368C79.4772 14.4975 79.4437 14.511 79.3968 14.4773C79.3499 14.4435 79.3096 14.3963 79.2694 14.3559C79.2493 14.3356 79.2426 14.3019 79.2292 14.2682C79.2225 14.2345 79.2158 14.2075 79.2091 14.1738C79.1957 14.1199 79.1823 14.0727 79.1421 14.0322C79.1287 14.012 79.1153 13.9918 79.1019 13.9715C79.0818 13.9176 79.1019 13.8569 79.1555 13.8502C79.189 13.8502 79.2225 13.8502 79.256 13.8569C79.3163 13.8771 79.3767 13.9041 79.4303 13.9311C79.4973 13.9648 79.5576 13.9513 79.6113 13.8974C79.6314 13.8771 79.6515 13.8569 79.6716 13.8299C79.7051 13.7895 79.7185 13.7423 79.7118 13.6883C79.7118 13.6276 79.685 13.5737 79.6448 13.5332C79.6046 13.486 79.5643 13.4388 79.5174 13.3849C79.437 13.2837 79.3364 13.2028 79.2359 13.1354C79.1354 13.0747 79.0281 13.0208 78.9075 13.014C78.7869 13.014 78.7533 12.9601 78.7466 12.8454C78.7399 12.7645 78.6997 12.7241 78.6327 12.7038C78.6059 12.6971 78.5791 12.6904 78.5523 12.6836C78.4852 12.6836 78.4182 12.6701 78.3445 12.6701C78.244 12.6701 78.1501 12.6904 78.0764 12.7713C78.0362 12.8185 77.9826 12.8454 77.9222 12.8522C77.8485 12.8657 77.7949 12.9061 77.7547 12.9736C77.7078 13.0545 77.6474 13.1152 77.5737 13.1624C77.4866 13.2096 77.4397 13.2972 77.4062 13.3849C77.3861 13.4321 77.3861 13.4725 77.4196 13.513C77.4799 13.5872 77.4665 13.6613 77.4263 13.7423C77.4062 13.7827 77.3861 13.8164 77.3592 13.8502C77.2922 13.9446 77.2453 14.0457 77.2386 14.1738C77.2386 14.275 77.1984 14.3626 77.1314 14.4368C77.0442 14.5379 76.9638 14.6458 76.8834 14.747C76.7895 14.8683 76.7292 15.0099 76.689 15.165C76.6421 15.3741 76.6689 15.5764 76.7962 15.7449C76.8633 15.8326 76.9236 15.8326 76.9973 15.7517C77.0174 15.7314 77.0308 15.7112 77.0509 15.691C77.1314 15.6101 77.2118 15.6236 77.252 15.7382C77.2788 15.8056 77.2922 15.8798 77.3123 15.954C77.3123 15.9742 77.3123 15.9877 77.3123 16.0079C77.3123 16.0551 77.2721 16.0821 77.2319 16.0619C77.2118 16.0484 77.1984 16.0349 77.1783 16.0214C77.1247 15.9944 77.0844 16.0012 77.0442 16.0484C77.0174 16.0821 76.9973 16.1293 76.9973 16.1765C76.9973 16.2102 76.9973 16.2507 76.9973 16.2844C76.9973 16.3316 76.9973 16.3855 76.9973 16.4395C76.9973 16.5136 76.9638 16.5811 76.8968 16.608C76.8164 16.6418 76.7761 16.7092 76.7426 16.7968C76.7158 16.871 76.689 16.9452 76.6421 17.0059C76.6086 17.0598 76.5751 17.107 76.5415 17.161C76.4544 17.3026 76.3539 17.4172 76.2064 17.4846C76.1729 17.4981 76.1461 17.5183 76.1126 17.5318C76.0925 17.5453 76.0724 17.5521 76.0523 17.5655C76.0188 17.5925 76.0121 17.633 76.0389 17.6667C76.0657 17.7004 76.0992 17.7341 76.1327 17.7611C76.1997 17.8218 76.2466 17.9027 76.2735 18.0038C76.307 18.1185 76.2533 18.2601 76.1595 18.314C76.0992 18.3477 76.0322 18.368 75.9718 18.3545C75.9316 18.3545 75.8914 18.3342 75.8512 18.3342C75.7976 18.3342 75.744 18.3275 75.6903 18.3275C75.6702 18.3275 75.6501 18.3342 75.6233 18.341C75.5764 18.3612 75.5563 18.4017 75.5563 18.4556C75.5563 18.4826 75.5563 18.5163 75.5563 18.5433C75.5697 18.6107 75.5563 18.6781 75.5429 18.7456C75.5295 18.786 75.5295 18.8265 75.5228 18.8602C75.5228 18.9748 75.5563 19.0625 75.6501 19.1164C75.7172 19.1502 75.7842 19.1771 75.8512 19.2108C75.878 19.2243 75.9115 19.2243 75.945 19.2108C76.0121 19.1839 76.0724 19.1569 76.1394 19.1367C76.2131 19.1164 76.2668 19.0625 76.3003 18.9816C76.3137 18.9411 76.3271 18.9007 76.3338 18.8602C76.3539 18.786 76.3807 18.7186 76.4343 18.6714C76.5147 18.5972 76.5751 18.5096 76.6086 18.3949C76.6354 18.314 76.6756 18.2938 76.7493 18.3005C76.7761 18.3005 76.7962 18.3073 76.8231 18.314C76.8767 18.314 76.9236 18.3073 76.9638 18.2601C76.9839 18.2331 77.0107 18.2129 77.0308 18.1859C77.1045 18.1185 77.1649 18.1252 77.2185 18.2129C77.2855 18.3275 77.3793 18.4084 77.4598 18.4961C77.4933 18.5298 77.5335 18.5635 77.5737 18.5905C77.6676 18.6512 77.748 18.7186 77.7681 18.8535C77.7681 18.8872 77.8016 18.8939 77.8284 18.8737C77.8619 18.8467 77.8887 18.8063 77.9021 18.7658C77.9289 18.6916 77.9222 18.6444 77.8686 18.5905C77.8351 18.5568 77.7949 18.5298 77.7614 18.5028C77.6944 18.4489 77.6273 18.3949 77.5603 18.341C77.5201 18.3005 77.4799 18.2601 77.4464 18.2129C77.4129 18.1724 77.3995 18.1252 77.3995 18.0713C77.3995 18.0038 77.4464 17.9634 77.5 17.9769C77.5335 17.9836 77.5603 18.0038 77.5804 18.0241C77.6072 18.0443 77.6273 18.0713 77.6474 18.0982C77.681 18.132 77.7145 18.1724 77.7547 18.2061C77.815 18.2533 77.8753 18.3005 77.9356 18.341C78.0228 18.4017 78.0898 18.4826 78.13 18.5972C78.1501 18.6647 78.1769 18.7321 78.197 18.7995C78.2104 18.8332 78.2239 18.8737 78.2507 18.9007C78.2909 18.9546 78.3378 18.9411 78.3579 18.8804C78.3646 18.8535 78.3713 18.8265 78.378 18.7995C78.3914 18.7523 78.4115 18.7119 78.4517 18.6916C78.5121 18.6579 78.5724 18.6309 78.6327 18.604C78.7064 18.577 78.7533 18.6107 78.7533 18.7119C78.7533 18.7591 78.7466 18.813 78.7466 18.8669C78.7466 18.9276 78.7399 18.9883 78.7399 19.049C78.7399 19.1502 78.7936 19.1906 78.8807 19.1704C78.9209 19.1636 78.9544 19.1434 78.9879 19.1299C79.0214 19.1164 79.0483 19.103 79.0818 19.0895C79.1287 19.0692 79.1756 19.0557 79.2225 19.0692C79.3096 19.0827 79.3901 19.0827 79.4772 19.0692C79.5643 19.049 79.618 19.1164 79.5978 19.2176C79.5911 19.258 79.5777 19.2985 79.5576 19.339C79.5308 19.3996 79.5241 19.4603 79.5107 19.5278C79.5107 19.5682 79.4973 19.6154 79.4839 19.6559C79.4303 19.811 79.3029 19.8379 79.2158 19.7907C79.2091 19.7907 79.1957 19.7907 79.189 19.7773C79.1287 19.7368 79.0684 19.7435 79.008 19.7638C78.9946 19.7638 78.9879 19.7773 78.9745 19.7773C78.8137 19.8177 78.6662 19.811 78.5188 19.7098C78.492 19.6896 78.4651 19.6761 78.4383 19.6559C78.3847 19.6289 78.3311 19.6356 78.2909 19.6896C78.2641 19.7233 78.2373 19.7503 78.2171 19.784C78.1501 19.8851 78.063 19.9121 77.9692 19.8717C77.9155 19.8514 77.8619 19.8312 77.815 19.7975C77.7212 19.73 77.6273 19.6828 77.5201 19.6761C77.4531 19.6761 77.4129 19.6289 77.3793 19.5615C77.3391 19.4738 77.2922 19.3862 77.2855 19.2783C77.2855 19.258 77.2788 19.2446 77.2721 19.2243C77.252 19.1569 77.2185 19.1232 77.1515 19.1164C77.1113 19.1164 77.0777 19.1164 77.0375 19.1232C76.9705 19.1367 76.9102 19.1502 76.8432 19.1569C76.6555 19.1839 76.4745 19.2311 76.3137 19.3524C76.2131 19.4266 76.1059 19.4334 75.9987 19.4064C75.9316 19.3929 75.8914 19.4064 75.8445 19.4603C75.7775 19.548 75.7038 19.6289 75.6367 19.7098C75.5764 19.784 75.5362 19.8649 75.5094 19.9593C75.4893 20.047 75.4558 20.1279 75.4021 20.2021C75.3686 20.2493 75.3284 20.2897 75.2882 20.3302C75.2145 20.4043 75.1541 20.492 75.1072 20.5932C75.0737 20.6606 75.0402 20.7348 75 20.7954C74.9598 20.8696 74.9531 20.9438 74.9665 21.0247C74.9665 21.0449 74.9732 21.0652 74.9799 21.0854C75.0268 21.2337 75.0268 21.3888 75 21.5439C74.9866 21.6316 74.9665 21.7192 74.9397 21.8069C74.9129 21.8878 74.933 21.9552 74.9866 22.0159C74.9866 22.0159 74.9933 22.0227 75 22.0294C75.0737 22.0968 75.134 22.1778 75.1877 22.2722C75.2413 22.3666 75.3016 22.4475 75.3753 22.5149C75.4759 22.6026 75.5764 22.6767 75.6769 22.7644C75.7641 22.8386 75.8579 22.8453 75.9651 22.7981C75.9785 22.7981 75.9853 22.7914 75.9987 22.7846C76.0858 22.7442 76.1796 22.7239 76.2735 22.7442C76.3606 22.7644 76.4343 22.7374 76.5013 22.6767C76.5281 22.6565 76.555 22.6295 76.5885 22.6161C76.7091 22.5486 76.8298 22.5554 76.937 22.6565C76.937 22.6633 76.9504 22.67 76.9571 22.6767C77.004 22.7239 77.0576 22.7509 77.118 22.7509C77.1515 22.7509 77.1783 22.7577 77.2118 22.7644C77.3123 22.7914 77.366 22.879 77.3525 23.0004C77.3525 23.0409 77.3391 23.0813 77.3324 23.115C77.3257 23.1622 77.3123 23.2094 77.2989 23.2499C77.2654 23.3713 77.2855 23.4657 77.3861 23.5398C77.4799 23.6073 77.5402 23.7084 77.5737 23.8298C77.5804 23.8568 77.5938 23.8905 77.6005 23.9242C77.6407 24.0523 77.6676 24.1939 77.7212 24.322C77.7547 24.4097 77.7413 24.4906 77.6877 24.5648C77.6743 24.585 77.6541 24.612 77.6407 24.6322C77.6139 24.6727 77.5938 24.7199 77.5804 24.7671C77.567 24.8547 77.5536 24.9424 77.5469 25.0368C77.5402 25.0975 77.5469 25.1514 77.5871 25.1986C77.634 25.2728 77.6676 25.3605 77.7078 25.4481C77.7614 25.5762 77.7949 25.7043 77.7882 25.846C77.7882 25.9336 77.8016 26.0145 77.8284 26.1022C77.8753 26.237 77.9156 26.3652 77.9625 26.4933C77.996 26.5877 78.0228 26.6821 78.0228 26.79C78.0228 26.8237 78.0228 26.8641 78.0362 26.8979C78.063 27.0125 78.1367 27.0867 78.2507 27.0192C78.2507 27.0192 78.2641 27.0192 78.2708 27.0125C78.378 26.9518 78.492 26.9113 78.6059 26.8844C78.6729 26.8709 78.7332 26.8304 78.7869 26.7765C78.8673 26.7023 78.9209 26.6079 78.9678 26.5C79.0013 26.4056 79.0483 26.318 79.0952 26.237C79.1354 26.1629 79.1756 26.0887 79.1957 26.0078C79.2158 25.9269 79.2426 25.8594 79.2962 25.8055C79.3432 25.7583 79.37 25.6909 79.3901 25.6167C79.4169 25.529 79.4169 25.4481 79.4035 25.3605C79.3767 25.2391 79.4102 25.1447 79.4839 25.0638C79.4973 25.0503 79.5174 25.03 79.5308 25.0166C79.6045 24.9424 79.6783 24.8682 79.752 24.794C79.819 24.7266 79.8592 24.639 79.8726 24.5446C79.886 24.4636 79.8928 24.3895 79.8995 24.3085C79.9062 24.2344 79.8995 24.1535 79.8659 24.086C79.819 23.9984 79.819 23.904 79.8257 23.8028C79.8324 23.7421 79.8391 23.6814 79.8391 23.6208C79.8391 23.5264 79.8659 23.4454 79.9196 23.3713C79.9598 23.3173 79.9933 23.2634 80.0402 23.2162C80.1206 23.115 80.2145 23.0139 80.2882 22.906C80.382 22.7644 80.496 22.643 80.6099 22.5284C80.697 22.4407 80.7574 22.3463 80.8043 22.225C80.8311 22.1508 80.8646 22.0766 80.8914 21.9957C80.9048 21.9552 80.9249 21.9148 80.9048 21.8743C80.878 21.8271 80.8311 21.8339 80.7909 21.8474C80.7038 21.8743 80.6166 21.9013 80.5295 21.9215C80.4893 21.935 80.4491 21.9485 80.4088 21.9552C80.3083 21.9687 80.2212 21.935 80.1676 21.8339C80.1407 21.7867 80.1139 21.7327 80.0938 21.6855C80.0603 21.6181 80.0335 21.5439 80 21.4697C79.9732 21.4091 79.9397 21.3551 79.8861 21.3147C79.819 21.2742 79.7721 21.2135 79.7386 21.1393C79.7185 21.0989 79.6984 21.0517 79.685 21.0045C79.6247 20.8224 79.571 20.6336 79.4906 20.465C79.4571 20.3909 79.4303 20.3032 79.4035 20.2223C79.3901 20.1886 79.3901 20.1481 79.3901 20.1077C79.3901 20.0672 79.4035 20.0402 79.4303 20.0133C79.4772 19.9661 79.5509 19.9728 79.5911 20.0335C79.618 20.0807 79.6448 20.1346 79.6649 20.1953C79.7051 20.3032 79.7453 20.3976 79.8056 20.492C79.8324 20.5392 79.8592 20.5864 79.8861 20.6336C79.9196 20.6943 79.9397 20.755 79.9464 20.8292C79.9464 20.8494 79.9464 20.8696 79.9531 20.8966C79.9531 20.964 79.9799 21.0247 80.0201 21.0719C80.0536 21.1191 80.0938 21.1731 80.134 21.2203C80.2078 21.3012 80.2681 21.3956 80.3016 21.5035C80.3552 21.6585 80.4289 21.6923 80.563 21.6316C80.6635 21.5844 80.7641 21.5372 80.8646 21.4697C81.0322 21.3619 81.193 21.2405 81.3539 21.1259C81.4075 21.0854 81.4611 21.0314 81.5013 20.9708C81.5415 20.9168 81.5818 20.8629 81.622 20.8089C81.6354 20.7887 81.6488 20.7752 81.6555 20.755C81.7091 20.6606 81.6957 20.5864 81.6153 20.519C81.6086 20.519 81.6019 20.5122 81.5952 20.4988C81.5617 20.465 81.5214 20.4381 81.4946 20.4044C81.4075 20.3032 81.3941 20.3032 81.2936 20.3774C81.2533 20.4111 81.2064 20.4381 81.1662 20.4583C81.0858 20.4988 81.0255 20.4718 80.9852 20.3841C80.9517 20.3099 80.9048 20.2493 80.8445 20.1953C80.7775 20.1346 80.7306 20.047 80.6903 19.9661C80.6836 19.9458 80.6769 19.9256 80.6702 19.9054C80.6568 19.8177 80.7104 19.7638 80.7842 19.7907C80.8244 19.8042 80.8579 19.8245 80.8914 19.8514C80.9584 19.8986 81.0255 19.9458 81.0858 19.9998C81.1595 20.0672 81.2399 20.1009 81.3338 20.1009C81.3941 20.1009 81.441 20.1211 81.4946 20.1616C81.5482 20.2088 81.6086 20.2358 81.6756 20.2425C81.7091 20.2425 81.7493 20.256 81.7895 20.256C81.87 20.2695 81.9437 20.256 82.0174 20.2358C82.0576 20.2223 82.0978 20.2088 82.1381 20.2021C82.1984 20.1886 82.2654 20.2021 82.319 20.2425C82.4062 20.3032 82.4866 20.3639 82.5536 20.4583C82.567 20.4785 82.5804 20.4988 82.5938 20.519C82.634 20.5729 82.6742 20.6066 82.7413 20.6134C82.7614 20.6134 82.7815 20.6134 82.8083 20.6269C82.8686 20.6404 82.9021 20.6876 82.9088 20.755C82.9088 20.782 82.9088 20.8157 82.9088 20.8426C82.9155 20.9236 82.9222 20.9977 82.9289 21.0786C82.9356 21.1393 82.9491 21.2 82.9893 21.2472C83.0563 21.3281 83.0898 21.4293 83.1166 21.5372C83.13 21.6046 83.1434 21.6788 83.1568 21.7462C83.1836 21.8474 83.2306 21.8743 83.311 21.8406C83.3579 21.8204 83.3847 21.7867 83.3914 21.7327C83.3981 21.672 83.4115 21.6046 83.4249 21.5439C83.4383 21.4765 83.4584 21.4023 83.4785 21.3349C83.4986 21.2607 83.5322 21.2 83.5858 21.1461C83.626 21.1056 83.6662 21.0517 83.6997 21.0045C83.7466 20.9505 83.7869 20.8898 83.8338 20.8359C83.941 20.728 84.0415 20.6201 84.1555 20.5122C84.2225 20.4448 84.3096 20.4111 84.3968 20.3909C84.4303 20.3909 84.4638 20.3909 84.4973 20.3909C84.5576 20.3909 84.6046 20.4313 84.6247 20.5055C84.6314 20.5325 84.6448 20.5594 84.6515 20.5864C84.6649 20.6336 84.6917 20.6741 84.7252 20.7078C84.7386 20.7213 84.7587 20.7348 84.7721 20.7482C84.8056 20.7752 84.8257 20.8089 84.8257 20.8561C84.8257 20.8831 84.8257 20.9101 84.8324 20.9438C84.8391 20.9977 84.8592 21.0112 84.9062 20.9977C84.933 20.991 84.9598 20.9775 84.9866 20.9708C85.0268 20.9573 85.0603 20.9775 85.0737 21.0314C85.0804 21.0652 85.0938 21.0989 85.0938 21.1393C85.0938 21.2068 85.0938 21.2675 85.0804 21.3349C85.067 21.4293 85.0536 21.5237 85.0536 21.6181C85.0536 21.699 85.067 21.7664 85.1072 21.8339C85.1407 21.8946 85.1675 21.9552 85.1944 22.0159C85.2078 22.0429 85.2145 22.0766 85.2212 22.1103C85.2346 22.198 85.1944 22.2452 85.1139 22.225C85.0804 22.2115 85.0469 22.1912 85.0134 22.1643C84.9933 22.1508 84.9799 22.1238 84.9531 22.1103C84.933 22.0901 84.9062 22.0766 84.8793 22.0631C84.8525 22.0496 84.819 22.0429 84.7922 22.0766C84.7654 22.1103 84.7654 22.1508 84.7855 22.1912C84.7922 22.2115 84.8056 22.2317 84.819 22.2452C84.886 22.3059 84.9263 22.3868 84.933 22.4879C84.933 22.5284 84.9598 22.5554 84.9933 22.5756C85.0067 22.5756 85.0201 22.5823 85.0335 22.5823C85.1072 22.5958 85.1609 22.643 85.2011 22.7037C85.2279 22.7509 85.2614 22.7914 85.2882 22.8318C85.315 22.8655 85.3351 22.8993 85.3619 22.9262C85.4222 22.9937 85.496 23.0341 85.5831 23.0341C85.5965 23.0341 85.6166 23.0341 85.6233 23.0071C85.6099 22.9869 85.5898 22.9599 85.5764 22.933C85.5496 22.8858 85.5228 22.8386 85.5295 22.7846C85.5429 22.7037 85.5094 22.6565 85.4557 22.6093C85.4356 22.5891 85.4088 22.5689 85.3887 22.5486C85.3753 22.5351 85.3552 22.5149 85.3418 22.4947C85.2882 22.4205 85.2949 22.3531 85.3485 22.2856C85.3686 22.2654 85.3887 22.2452 85.4021 22.225C85.449 22.1575 85.4424 22.0766 85.3887 22.0227C85.3686 22.0024 85.3485 21.989 85.3284 21.9687C85.2949 21.935 85.2547 21.908 85.2212 21.8743C85.1877 21.8406 85.1608 21.8001 85.1608 21.7462C85.1608 21.6451 85.1608 21.5439 85.1608 21.4428C85.1608 21.3753 85.1944 21.3349 85.2413 21.3147C85.3016 21.2877 85.3552 21.2944 85.4155 21.3281C85.4759 21.3686 85.5228 21.4293 85.563 21.49C85.6032 21.5507 85.6434 21.5574 85.7037 21.5237C85.7373 21.5035 85.7708 21.4765 85.8043 21.4495C85.8713 21.3956 85.945 21.3416 86.0121 21.2809C86.0255 21.2675 86.0389 21.254 86.0523 21.2337C86.0858 21.1933 86.0858 21.1393 86.0657 21.0921C86.0523 21.0719 86.0389 21.0517 86.0255 21.0314C85.9584 20.9438 85.9048 20.8494 85.811 20.7954C85.7574 20.7617 85.744 20.6943 85.7574 20.6269C85.7708 20.5797 85.7976 20.5325 85.8311 20.4988C85.8646 20.465 85.8981 20.4313 85.9316 20.3976C85.9785 20.3504 86.0389 20.3167 86.0992 20.3099C86.2332 20.2897 86.3606 20.2425 86.4879 20.2021C86.6622 20.1481 86.823 20.0739 86.9504 19.9189C86.9571 19.9121 86.9705 19.8986 86.9772 19.8919C87.0241 19.8514 87.0576 19.8042 87.0844 19.7435C87.1179 19.6694 87.1582 19.6019 87.2051 19.5345C87.2252 19.5008 87.252 19.4603 87.2654 19.4266C87.2654 19.4064 87.2654 19.3862 87.2654 19.3727C87.2922 19.0355 87.3123 18.6984 87.3123 18.3545C87.3123 18.3342 87.3123 18.3073 87.3123 18.287L87.4263 18.2938Z" fill="#C6C6C5"/>
<path d="M67.9422 13.6209C67.9958 13.6883 68.0829 13.6748 68.1232 13.5939C68.15 13.54 68.1634 13.4725 68.1433 13.4186C68.1097 13.3174 68.103 13.223 68.1299 13.1219C68.1299 13.1219 68.1299 13.1151 68.1299 13.1084C68.1299 13.0679 68.1097 13.0477 68.0762 13.0545C68.0695 13.0545 68.0561 13.0545 68.0494 13.0679C67.9958 13.0949 67.969 13.1421 67.9556 13.2095C67.9556 13.2567 67.9355 13.3107 67.9087 13.3511C67.8417 13.4523 67.8484 13.4725 67.9154 13.5872C67.9221 13.6006 67.9288 13.6074 67.9355 13.6209H67.9422Z" fill="#C6C6C5"/>
<path d="M67.9961 14.3158C67.9961 14.3158 68.0095 14.282 68.0162 14.2685C68.0162 14.2482 68.0162 14.2279 68.0028 14.2076C67.9894 14.1873 67.9692 14.1873 67.9491 14.1941C67.9089 14.2076 67.8754 14.2414 67.8419 14.2752C67.8218 14.3023 67.8017 14.3294 67.8017 14.37C67.8017 14.4105 67.8151 14.4444 67.8553 14.4714C67.929 14.4241 67.9693 14.3835 68.0028 14.3158H67.9961Z" fill="#C6C6C5"/>
<path d="M68.4451 12.2456C68.4451 12.2456 68.4652 12.1779 68.4652 12.1644C68.3981 12.266 68.3445 12.3743 68.2842 12.4827C68.2842 12.4827 68.2909 12.4827 68.2976 12.4759C68.3579 12.415 68.4116 12.3405 68.4451 12.2524V12.2456Z" fill="#C6C6C5"/>
<path d="M70.2612 21.3821C70.1942 21.3821 70.1473 21.3889 70.107 21.4367C70.0802 21.464 70.0869 21.4981 70.107 21.5186C70.1607 21.5664 70.2746 21.5596 70.3282 21.5049C70.355 21.4776 70.3483 21.423 70.3148 21.4026C70.2947 21.3889 70.2679 21.3889 70.2612 21.3821Z" fill="#C6C6C5"/>
<path d="M69.7588 21.1871C69.6716 21.133 69.5912 21.0788 69.4907 21.0653C69.4169 21.0586 69.3499 21.0518 69.2829 21.0247C69.2494 21.0112 69.2159 21.0112 69.1824 21.0383C69.1689 21.045 69.1622 21.0721 69.1622 21.0789C69.1622 21.0924 69.1824 21.1127 69.1891 21.1127C69.2159 21.1127 69.2427 21.1194 69.2695 21.1127C69.3365 21.0991 69.3968 21.1127 69.4571 21.1533C69.5175 21.1939 69.5845 21.2345 69.6448 21.275C69.6783 21.2953 69.7051 21.3021 69.7253 21.3089C69.7655 21.3089 69.7923 21.2953 69.7923 21.275C69.7923 21.2547 69.7923 21.2345 69.7789 21.2142C69.7789 21.2006 69.7655 21.1939 69.7521 21.1871H69.7588Z" fill="#C6C6C5"/>
<path d="M67.567 14.1948C67.5938 14.1541 67.6005 14.1135 67.5737 14.0729C67.567 14.0526 67.5536 14.039 67.5402 14.0255C67.4999 14.1338 67.4664 14.2489 67.4262 14.3573C67.4262 14.3573 67.4329 14.3573 67.4396 14.3573C67.4798 14.3031 67.5268 14.2557 67.567 14.2015V14.1948Z" fill="#C6C6C5"/>
<path d="M69.7652 14.3295C69.7652 14.3295 69.7585 14.3089 69.7451 14.302C69.7116 14.2815 69.6647 14.3089 69.658 14.3569C69.658 14.3912 69.6781 14.4255 69.7049 14.4186C69.7384 14.4118 69.7585 14.3843 69.7585 14.3363L69.7652 14.3295Z" fill="#C6C6C5"/>
<path d="M26.6689 20.8224C29.5308 20.8224 31.89 18.4624 31.89 15.5831C31.89 12.7038 29.5375 10.4449 26.6756 10.4382C23.8136 10.4314 21.4544 12.6971 21.4544 15.5763C21.4544 18.4556 23.8069 20.8157 26.6689 20.8157V20.8224Z" fill="#C6C6C5"/>
<path d="M0 41.7392H94.8659V40.2355L0 40.1951V41.7392Z" fill="#C6C6C5"/>
<path d="M3.13677 49.9184C3.13677 49.8578 3.13677 49.8106 3.13006 49.7701C3.13006 49.7296 3.11666 49.6959 3.10326 49.669C3.08985 49.642 3.06974 49.6218 3.05634 49.6083C3.03623 49.5948 3.01612 49.588 2.98931 49.588H0.898162V44.5645C0.898162 44.5375 0.898162 44.5173 0.878055 44.5038C0.86465 44.4836 0.844543 44.4701 0.817733 44.4634C0.790924 44.4499 0.750709 44.4431 0.69709 44.4364C0.643471 44.4296 0.583149 44.4229 0.509422 44.4229C0.435696 44.4229 0.375374 44.4229 0.328457 44.4364C0.274838 44.4431 0.234624 44.4499 0.207814 44.4634C0.174302 44.4768 0.154195 44.4903 0.147492 44.5038C0.134087 44.5241 0.127385 44.5443 0.127385 44.5645V49.9454C0.127385 50.0601 0.154195 50.141 0.214516 50.1882C0.274838 50.2354 0.341862 50.2556 0.408886 50.2556H2.96921C2.96921 50.2556 3.02283 50.2556 3.03623 50.2354C3.05634 50.2219 3.06974 50.2017 3.08315 50.1747C3.09655 50.1477 3.10326 50.1073 3.10996 50.0735C3.10996 50.0331 3.11666 49.9859 3.11666 49.9184H3.13677ZM7.56036 49.9387C7.56036 49.878 7.56036 49.8308 7.55366 49.7903C7.55366 49.7499 7.53355 49.7162 7.52014 49.6892C7.50674 49.6622 7.48663 49.6487 7.46652 49.6352C7.44642 49.6218 7.42631 49.615 7.3995 49.615H5.10057V47.5382H7.04427C7.04427 47.5382 7.09119 47.5382 7.1113 47.5247C7.1314 47.5112 7.14481 47.4977 7.15821 47.4707C7.17162 47.4438 7.17832 47.4168 7.18502 47.3763C7.18502 47.3359 7.19173 47.2887 7.19173 47.2347C7.19173 47.1808 7.19173 47.1269 7.18502 47.0864C7.18502 47.0459 7.17162 47.0122 7.15821 46.9852C7.14481 46.9583 7.1247 46.9448 7.1113 46.9313C7.09119 46.9178 7.07108 46.9111 7.04427 46.9111H5.10057V45.0905H7.36599C7.36599 45.0905 7.41291 45.0905 7.43301 45.0702C7.45312 45.0567 7.46652 45.0365 7.47993 45.0163C7.49333 44.9893 7.50004 44.9556 7.50674 44.9151C7.51344 44.8747 7.52014 44.8275 7.52014 44.7735C7.52014 44.7129 7.52014 44.6657 7.50674 44.6252C7.50004 44.5847 7.48663 44.551 7.47993 44.524C7.46652 44.4971 7.45312 44.4768 7.43301 44.4634C7.41291 44.4499 7.3928 44.4431 7.36599 44.4431H4.618C4.55098 44.4431 4.48395 44.4634 4.42363 44.5106C4.36331 44.5578 4.3298 44.6387 4.3298 44.7533V49.9387C4.3298 50.0533 4.35661 50.1342 4.41693 50.1814C4.47725 50.2286 4.54427 50.2489 4.6113 50.2489H7.3861C7.3861 50.2489 7.43301 50.2489 7.45312 50.2286C7.47323 50.2151 7.48663 50.1949 7.50674 50.1679C7.52014 50.141 7.53355 50.1073 7.54025 50.0668C7.54025 50.0263 7.54695 49.9791 7.54695 49.9252L7.56036 49.9387ZM12.7949 44.7803C12.7949 44.7263 12.7949 44.6724 12.7882 44.6319C12.7882 44.5915 12.7748 44.551 12.7614 44.5308C12.748 44.5038 12.7346 44.4836 12.7145 44.4701C12.6944 44.4566 12.6743 44.4499 12.6475 44.4499H8.62604C8.62604 44.4499 8.57912 44.4499 8.55902 44.4634C8.53891 44.4768 8.52551 44.4971 8.5121 44.524C8.4987 44.551 8.49199 44.5847 8.48529 44.6252C8.47859 44.6657 8.47189 44.7196 8.47189 44.7735C8.47189 44.8275 8.47189 44.8814 8.48529 44.9219C8.49199 44.9623 8.5054 44.9961 8.5121 45.023C8.52551 45.05 8.53891 45.0702 8.55902 45.077C8.57912 45.0905 8.59923 45.0972 8.62604 45.0972H10.248V50.141C10.248 50.1679 10.248 50.1882 10.2681 50.2017C10.2815 50.2219 10.3016 50.2354 10.3285 50.2421C10.3553 50.2556 10.3955 50.2623 10.4491 50.2691C10.5027 50.2758 10.563 50.2826 10.6301 50.2826C10.6971 50.2826 10.7641 50.2826 10.8177 50.2691C10.8646 50.2623 10.9049 50.2556 10.9384 50.2421C10.9719 50.2286 10.992 50.2151 10.9987 50.2017C11.0121 50.1814 11.0188 50.1612 11.0188 50.141V45.0972H12.6475C12.6676 45.0972 12.6944 45.0972 12.7145 45.077C12.7346 45.0635 12.748 45.0433 12.7614 45.023C12.7748 44.9961 12.7815 44.9623 12.7882 44.9219C12.7882 44.8814 12.7949 44.8342 12.7949 44.7735V44.7803ZM14.9129 44.342C14.9129 44.2611 14.9062 44.2004 14.8861 44.1532C14.866 44.106 14.8459 44.0655 14.8124 44.0386C14.7789 44.0116 14.7319 43.9914 14.6783 43.9846C14.6247 43.9779 14.5577 43.9711 14.4839 43.9711C14.4035 43.9711 14.3432 43.9711 14.2896 43.9846C14.236 43.9914 14.189 44.0116 14.1555 44.0386C14.122 44.0655 14.0952 44.106 14.0751 44.1532C14.055 44.2004 14.0483 44.2611 14.0483 44.342V44.9084L13.4518 46.1424C13.4384 46.1693 13.4317 46.1896 13.4384 46.2098C13.4384 46.23 13.4451 46.2435 13.4652 46.2503C13.4786 46.2637 13.5054 46.2705 13.5389 46.2705C13.5724 46.2705 13.6126 46.2705 13.6663 46.2705C13.7266 46.2705 13.7668 46.2705 13.807 46.2705C13.8405 46.2705 13.874 46.257 13.9075 46.2503C13.9343 46.2368 13.9612 46.2233 13.9813 46.2098C14.0014 46.1896 14.0148 46.1761 14.0349 46.1491L14.6448 45.2253C14.6984 45.1511 14.7386 45.0837 14.7722 45.0163C14.8057 44.9489 14.8325 44.8814 14.8526 44.8073C14.8727 44.7398 14.8861 44.6656 14.8995 44.5915C14.9062 44.5173 14.9129 44.4296 14.9129 44.342ZM19.4169 48.6373C19.4169 48.408 19.3767 48.2057 19.303 48.0372C19.2293 47.8686 19.1287 47.7202 19.0014 47.5989C18.874 47.4775 18.7333 47.3629 18.5791 47.2752C18.425 47.1808 18.2574 47.0999 18.0965 47.0257C17.929 46.9515 17.7681 46.8706 17.614 46.7964C17.4531 46.7223 17.3124 46.6414 17.1917 46.547C17.0711 46.4593 16.9705 46.3514 16.8968 46.2368C16.8231 46.1221 16.7829 45.9805 16.7829 45.8187C16.7829 45.7108 16.803 45.6029 16.8432 45.5018C16.8834 45.4006 16.9437 45.3197 17.0175 45.2455C17.0979 45.1714 17.1917 45.1174 17.3124 45.0702C17.433 45.0298 17.5738 45.0028 17.7346 45.0028C17.9089 45.0028 18.063 45.023 18.2038 45.0702C18.3445 45.1107 18.4652 45.1579 18.5657 45.2118C18.6663 45.2658 18.7534 45.313 18.8204 45.3534C18.8874 45.3939 18.941 45.4141 18.9746 45.4141C18.9947 45.4141 19.0148 45.4141 19.0282 45.3939C19.0416 45.3804 19.055 45.3602 19.0617 45.3332C19.0684 45.3062 19.0818 45.2658 19.0818 45.2253C19.0818 45.1849 19.0818 45.1377 19.0818 45.0837C19.0818 45.023 19.0818 44.9826 19.0818 44.9421C19.0818 44.9084 19.0751 44.8747 19.0684 44.8477C19.0684 44.8207 19.055 44.8005 19.0483 44.787C19.0416 44.7735 19.0215 44.7466 18.9947 44.7196C18.9679 44.6926 18.9075 44.6522 18.8204 44.605C18.7333 44.5578 18.626 44.5173 18.5121 44.4768C18.3982 44.4364 18.2775 44.4094 18.1435 44.3892C18.0161 44.369 17.8888 44.3555 17.7547 44.3555C17.5067 44.3555 17.2722 44.3892 17.0577 44.4566C16.8432 44.524 16.6555 44.6252 16.5014 44.7533C16.3472 44.8814 16.2266 45.0433 16.1327 45.2321C16.0456 45.4209 15.9987 45.6366 15.9987 45.8794C15.9987 46.1221 16.0389 46.3177 16.1126 46.4863C16.1864 46.6548 16.2869 46.8032 16.4075 46.9313C16.5282 47.0594 16.6689 47.1673 16.8231 47.255C16.9772 47.3494 17.1381 47.4303 17.299 47.5112C17.4598 47.5854 17.6207 47.6595 17.7815 47.7337C17.9357 47.8079 18.0764 47.8888 18.1971 47.9765C18.3177 48.0641 18.4183 48.1653 18.492 48.2866C18.5657 48.4013 18.6059 48.5429 18.6059 48.7115C18.6059 48.8598 18.5791 49.0014 18.5255 49.116C18.4719 49.2374 18.3982 49.3386 18.2976 49.4195C18.1971 49.5004 18.0764 49.5678 17.9424 49.6083C17.8016 49.6555 17.6542 49.6757 17.4799 49.6757C17.2587 49.6757 17.0644 49.6487 16.8968 49.5948C16.7293 49.5408 16.5818 49.4869 16.4679 49.4262C16.3472 49.3655 16.2467 49.3116 16.173 49.2576C16.0992 49.2037 16.0389 49.1835 15.9987 49.1835C15.9719 49.1835 15.9518 49.1835 15.9384 49.1969C15.9183 49.2104 15.9049 49.2239 15.8915 49.2509C15.878 49.2779 15.8713 49.3116 15.8646 49.352C15.8646 49.3925 15.8579 49.4532 15.8579 49.5139C15.8579 49.6083 15.8646 49.6824 15.8848 49.7364C15.8982 49.7903 15.925 49.8375 15.9585 49.8713C15.992 49.905 16.0523 49.9522 16.1394 50.0061C16.2266 50.0601 16.3338 50.1073 16.4679 50.1545C16.5952 50.2017 16.7427 50.2421 16.9102 50.2758C17.0778 50.3095 17.252 50.323 17.4464 50.323C17.7212 50.323 17.9826 50.2893 18.2239 50.2084C18.4652 50.1342 18.673 50.0196 18.8472 49.8713C19.0215 49.7229 19.1622 49.5408 19.2628 49.3318C19.3633 49.116 19.4102 48.88 19.4102 48.6036L19.4169 48.6373ZM29.7923 50.1545V44.8073C29.7923 44.7466 29.7855 44.6926 29.7654 44.6454C29.7453 44.5982 29.7252 44.5645 29.6984 44.5375C29.6716 44.5106 29.6314 44.4903 29.5979 44.4768C29.5577 44.4634 29.5108 44.4566 29.4705 44.4566H28.9746C28.9008 44.4566 28.8338 44.4634 28.7735 44.4836C28.7199 44.4971 28.6662 44.524 28.6193 44.5645C28.5724 44.5982 28.5322 44.6522 28.492 44.7129C28.4518 44.7735 28.4183 44.8545 28.3847 44.9421L26.6622 49.1363H26.6421L24.9866 44.9286C24.9598 44.8477 24.9263 44.7735 24.8928 44.7196C24.8593 44.6589 24.8124 44.6117 24.7587 44.5713C24.7051 44.5308 24.6381 44.5038 24.5711 44.4836C24.4973 44.4634 24.4169 44.4566 24.3164 44.4566H23.8405C23.7601 44.4566 23.6864 44.4836 23.6193 44.5375C23.5523 44.5915 23.5188 44.6791 23.5188 44.8073V50.1545C23.5188 50.1545 23.5188 50.2017 23.5322 50.2151C23.5456 50.2354 23.5657 50.2489 23.5925 50.2556C23.6193 50.2691 23.6595 50.2758 23.7132 50.2826C23.7601 50.2893 23.8204 50.2961 23.9008 50.2961C23.9813 50.2961 24.0416 50.2961 24.0885 50.2826C24.1354 50.2758 24.1756 50.2691 24.2091 50.2556C24.2427 50.2421 24.2628 50.2286 24.2762 50.2151C24.2896 50.2017 24.2963 50.1747 24.2963 50.1545V45.0905H24.303L26.2534 50.1747C26.2534 50.1747 26.2735 50.2084 26.2869 50.2219C26.307 50.2354 26.3271 50.2489 26.3539 50.2623C26.3807 50.2758 26.4209 50.2826 26.4679 50.2893C26.5148 50.2893 26.5684 50.2961 26.6287 50.2961C26.689 50.2961 26.7427 50.2961 26.7829 50.2961C26.8298 50.2961 26.8633 50.2826 26.8968 50.2758C26.9303 50.2623 26.9504 50.2556 26.9705 50.2354C26.9839 50.2219 26.9973 50.2017 27.0041 50.1814L29.0416 45.0972H29.0483V50.1612C29.0483 50.1882 29.0483 50.2084 29.0684 50.2219C29.0818 50.2421 29.1019 50.2556 29.1287 50.2623C29.1555 50.2758 29.1957 50.2826 29.2494 50.2893C29.303 50.2961 29.3633 50.3028 29.4303 50.3028C29.504 50.3028 29.5711 50.3028 29.618 50.2893C29.6649 50.2826 29.7051 50.2758 29.7386 50.2623C29.7721 50.2489 29.7923 50.2354 29.8057 50.2219C29.8191 50.2084 29.8258 50.1814 29.8258 50.1612L29.7923 50.1545ZM36.0188 49.9994L34.0818 44.5982C34.0818 44.5982 34.055 44.5375 34.0349 44.5173C34.0148 44.4971 33.9813 44.4768 33.9477 44.4634C33.9075 44.4499 33.8606 44.4431 33.7936 44.4364C33.7333 44.4364 33.6528 44.4364 33.559 44.4364C33.4719 44.4364 33.3982 44.4364 33.3378 44.4364C33.2775 44.4364 33.2306 44.4499 33.1971 44.4634C33.1569 44.4768 33.1301 44.4903 33.1099 44.5106C33.0898 44.5308 33.0764 44.5578 33.063 44.5915L31.1193 49.9926C31.0925 50.0601 31.0858 50.114 31.0791 50.1545C31.0791 50.1949 31.0858 50.2219 31.1126 50.2489C31.1327 50.2691 31.1729 50.2826 31.2266 50.2893C31.2802 50.2961 31.3539 50.3028 31.441 50.3028C31.5282 50.3028 31.5952 50.3028 31.6421 50.2961C31.6957 50.2961 31.736 50.2826 31.7628 50.2691C31.7896 50.2556 31.8164 50.2421 31.8298 50.2219C31.8432 50.2017 31.8566 50.1814 31.8633 50.1545L32.3392 48.7587H34.7453L35.2413 50.1747C35.2547 50.2017 35.2681 50.2219 35.2815 50.2421C35.2949 50.2623 35.315 50.2758 35.3418 50.2826C35.3687 50.2961 35.4089 50.3028 35.4692 50.3028C35.5228 50.3028 35.5965 50.3028 35.6904 50.3028C35.7842 50.3028 35.8579 50.3028 35.9116 50.2961C35.9652 50.2961 36.0054 50.2758 36.0322 50.2556C36.0523 50.2354 36.0657 50.2017 36.0657 50.1612C36.0657 50.1207 36.0523 50.0668 36.0255 49.9994H36.0188ZM32.5268 48.1248L33.5255 45.2253L34.5309 48.1248H32.5201H32.5268ZM41.1126 50.1477C41.1126 50.1477 41.1126 50.1073 41.0925 50.0803C41.0858 50.0533 41.0523 49.9994 40.9987 49.9184L38.9343 47.1606L40.8512 44.8612C40.9049 44.7938 40.9384 44.7398 40.9585 44.6994C40.9786 44.6589 40.9853 44.6185 40.9853 44.5847C40.9853 44.5645 40.9853 44.5443 40.9652 44.524C40.9585 44.5038 40.9384 44.4903 40.9048 44.4768C40.878 44.4634 40.8378 44.4566 40.7909 44.4499C40.744 44.4431 40.677 44.4364 40.6032 44.4364C40.5295 44.4364 40.4625 44.4364 40.4156 44.4431C40.3687 44.4431 40.3217 44.4566 40.2882 44.4701C40.2547 44.4836 40.2212 44.4971 40.2011 44.5106C40.1743 44.5308 40.1542 44.551 40.1408 44.578L38.0898 47.1606V44.578C38.0898 44.578 38.0898 44.5308 38.0697 44.5173C38.0563 44.4971 38.0362 44.4836 38.0094 44.4768C37.9826 44.4634 37.9424 44.4566 37.8888 44.4499C37.8351 44.4431 37.7748 44.4364 37.7011 44.4364C37.6274 44.4364 37.567 44.4364 37.5201 44.4499C37.4665 44.4566 37.4263 44.4634 37.3995 44.4768C37.366 44.4903 37.3459 44.5038 37.3392 44.5173C37.3258 44.5375 37.3191 44.5578 37.3191 44.578V50.1545C37.3191 50.1545 37.3191 50.1949 37.3325 50.2151C37.3459 50.2354 37.366 50.2489 37.3928 50.2623C37.4196 50.2758 37.4598 50.2826 37.5134 50.2893C37.5671 50.2961 37.6274 50.3028 37.6944 50.3028C37.7614 50.3028 37.8284 50.3028 37.8821 50.2893C37.929 50.2826 37.9692 50.2758 38.0027 50.2623C38.0362 50.2489 38.0563 50.2354 38.063 50.2151C38.0764 50.1949 38.0831 50.1747 38.0831 50.1545V47.2482L40.2145 50.1545C40.2346 50.1882 40.2614 50.2084 40.2949 50.2354C40.3284 50.2623 40.3754 50.2758 40.4424 50.2826C40.5094 50.2893 40.5965 50.2961 40.6971 50.2961C40.7775 50.2961 40.8445 50.2961 40.8914 50.2826C40.9451 50.2758 40.9786 50.2623 41.0121 50.2556C41.0389 50.2421 41.0657 50.2286 41.0724 50.2084C41.0858 50.1882 41.0925 50.1679 41.0925 50.141L41.1126 50.1477ZM45.677 49.9522C45.677 49.8915 45.677 49.8443 45.6703 49.8038C45.6703 49.7634 45.6502 49.7296 45.6367 49.7027C45.6233 49.6757 45.6032 49.6622 45.5831 49.6487C45.563 49.6352 45.5429 49.6285 45.5161 49.6285H43.2172V47.5517H45.1609C45.1609 47.5517 45.2078 47.5517 45.2279 47.5382C45.248 47.5247 45.2614 47.5112 45.2748 47.4842C45.2882 47.4573 45.2949 47.4303 45.3016 47.3898C45.3016 47.3494 45.3083 47.3022 45.3083 47.2482C45.3083 47.1943 45.3083 47.1403 45.3016 47.0999C45.3016 47.0594 45.2882 47.0257 45.2748 46.9987C45.2614 46.9718 45.2413 46.9583 45.2279 46.9448C45.2078 46.9313 45.1877 46.9246 45.1609 46.9246H43.2172V45.1039H45.4826C45.4826 45.1039 45.5295 45.104 45.5496 45.0837C45.5697 45.0702 45.5831 45.05 45.5965 45.0298C45.6099 45.0028 45.6166 44.9691 45.6233 44.9286C45.63 44.8882 45.6367 44.841 45.6367 44.787C45.6367 44.7263 45.6367 44.6791 45.6233 44.6387C45.6166 44.5982 45.6032 44.5645 45.5965 44.5375C45.5831 44.5106 45.5697 44.4903 45.5496 44.4768C45.5295 44.4634 45.5094 44.4566 45.4826 44.4566H42.7346C42.6676 44.4566 42.6006 44.4768 42.5402 44.524C42.4799 44.5712 42.4464 44.6522 42.4464 44.7668V49.9522C42.4464 50.0668 42.4732 50.1477 42.5335 50.1949C42.5939 50.2421 42.6609 50.2623 42.7279 50.2623H45.5027C45.5027 50.2623 45.5496 50.2623 45.5697 50.2421C45.5898 50.2286 45.6032 50.2084 45.6233 50.1814C45.6367 50.1545 45.6502 50.1207 45.6569 50.0803C45.6569 50.0398 45.6636 49.9926 45.6636 49.9387L45.677 49.9522ZM52.7681 49.9387C52.7681 49.878 52.7681 49.8308 52.7614 49.7903C52.7614 49.7499 52.748 49.7162 52.7346 49.6892C52.7212 49.6622 52.7011 49.642 52.6877 49.6285C52.6676 49.615 52.6475 49.6083 52.6207 49.6083H50.5429V44.5847C50.5429 44.5578 50.5429 44.5375 50.5228 44.524C50.5094 44.5038 50.4893 44.4903 50.4625 44.4836C50.4357 44.4701 50.3955 44.4634 50.3418 44.4566C50.2882 44.4499 50.2279 44.4431 50.1542 44.4431C50.0804 44.4431 50.0201 44.4431 49.9732 44.4566C49.9196 44.4634 49.8794 44.4701 49.8526 44.4836C49.819 44.4971 49.7989 44.5106 49.7922 44.524C49.7788 44.5443 49.7721 44.5645 49.7721 44.5847V49.9657C49.7721 50.0803 49.7989 50.1612 49.8593 50.2084C49.9196 50.2556 49.9866 50.2758 50.0536 50.2758H52.614C52.614 50.2758 52.6676 50.2758 52.681 50.2556C52.7011 50.2421 52.7145 50.2219 52.7279 50.1949C52.7413 50.1679 52.748 50.1275 52.7547 50.0938C52.7547 50.0533 52.7614 50.0061 52.7614 49.9387H52.7681ZM54.7386 50.1612V44.5847C54.7386 44.5847 54.7386 44.5375 54.7252 44.524C54.7118 44.5038 54.6917 44.4903 54.6649 44.4836C54.6381 44.4701 54.5979 44.4634 54.5442 44.4566C54.4906 44.4499 54.4303 44.4431 54.3566 44.4431C54.2896 44.4431 54.2292 44.4431 54.1823 44.4566C54.1354 44.4634 54.0952 44.4701 54.0617 44.4836C54.0282 44.4971 54.0081 44.5106 53.9947 44.524C53.9812 44.5443 53.9745 44.5645 53.9745 44.5847V50.1612C53.9745 50.1612 53.9745 50.2084 53.988 50.2219C54.0014 50.2421 54.0215 50.2556 54.0483 50.2623C54.0751 50.2758 54.1153 50.2826 54.1689 50.2893C54.2225 50.2961 54.2829 50.3028 54.3499 50.3028C54.4169 50.3028 54.4839 50.3028 54.5375 50.2893C54.5845 50.2826 54.6247 50.2758 54.6582 50.2623C54.6917 50.2489 54.7118 50.2354 54.7185 50.2219C54.7319 50.2084 54.7386 50.1814 54.7386 50.1612ZM59.6716 44.8005C59.6716 44.7466 59.6716 44.6926 59.6649 44.6522C59.6649 44.6117 59.6448 44.5713 59.6314 44.551C59.618 44.524 59.5979 44.5038 59.5778 44.4903C59.5577 44.4769 59.5375 44.4701 59.5174 44.4701H56.9169C56.8499 44.4701 56.7829 44.4903 56.7225 44.5375C56.6622 44.5847 56.6287 44.6657 56.6287 44.7803V50.1612C56.6287 50.1612 56.6287 50.2017 56.6421 50.2219C56.6555 50.2421 56.6756 50.2556 56.7024 50.2691C56.7292 50.2826 56.7695 50.2893 56.8231 50.2961C56.8767 50.3028 56.937 50.3095 57.004 50.3095C57.0845 50.3095 57.1448 50.3095 57.1917 50.2961C57.2386 50.2893 57.2788 50.2826 57.3056 50.2691C57.3392 50.2556 57.3593 50.2421 57.366 50.2219C57.3794 50.2017 57.3861 50.1814 57.3861 50.1612V47.7405H59.3901C59.4102 47.7405 59.4303 47.7405 59.4504 47.7202C59.4705 47.7067 59.4839 47.6865 59.504 47.6595C59.5174 47.6326 59.5308 47.5989 59.5375 47.5584C59.5375 47.5179 59.5442 47.4707 59.5442 47.4101C59.5442 47.3494 59.5443 47.2954 59.5375 47.255C59.5375 47.2145 59.5174 47.1808 59.504 47.1606C59.4906 47.1336 59.4705 47.1201 59.4504 47.1066C59.4303 47.0931 59.4102 47.0931 59.3901 47.0931H57.3861V45.1174H59.504C59.504 45.1174 59.5443 45.1174 59.5644 45.0972C59.5845 45.0837 59.5979 45.0635 59.618 45.0433C59.6314 45.0163 59.6448 44.9826 59.6515 44.9421C59.6515 44.9017 59.6582 44.8545 59.6582 44.7938L59.6716 44.8005ZM64.4169 49.9657C64.4169 49.905 64.4169 49.8578 64.4102 49.8173C64.4102 49.7768 64.3901 49.7431 64.3767 49.7162C64.3633 49.6892 64.3432 49.6757 64.3231 49.6622C64.303 49.6487 64.2829 49.642 64.256 49.642H61.9571V47.5651H63.9008C63.9008 47.5651 63.9477 47.5651 63.9678 47.5517C63.9879 47.5382 64.0014 47.5247 64.0148 47.4977C64.0282 47.4707 64.0349 47.4438 64.0416 47.4033C64.0416 47.3629 64.0483 47.3157 64.0483 47.2617C64.0483 47.2078 64.0483 47.1538 64.0416 47.1134C64.0416 47.0729 64.0282 47.0392 64.0148 47.0122C64.0014 46.9852 63.9812 46.9718 63.9678 46.9583C63.9477 46.9448 63.9276 46.938 63.9008 46.938H61.9571V45.1174H64.2225C64.2225 45.1174 64.2694 45.1174 64.2896 45.0972C64.3097 45.0837 64.3231 45.0635 64.3365 45.0433C64.3499 45.0163 64.3566 44.9826 64.3633 44.9421C64.37 44.9017 64.3767 44.8545 64.3767 44.8005C64.3767 44.7398 64.3767 44.6926 64.3633 44.6522C64.3566 44.6117 64.3432 44.578 64.3365 44.551C64.3231 44.524 64.3097 44.5038 64.2896 44.4903C64.2694 44.4769 64.2493 44.4701 64.2225 44.4701H61.4745C61.4075 44.4701 61.3405 44.4903 61.2802 44.5375C61.2198 44.5847 61.1863 44.6657 61.1863 44.7803V49.9657C61.1863 50.0803 61.2131 50.1612 61.2735 50.2084C61.3338 50.2556 61.4008 50.2758 61.4678 50.2758H64.2426C64.2426 50.2758 64.2896 50.2758 64.3097 50.2556C64.3298 50.2421 64.3432 50.2219 64.3633 50.1949C64.3767 50.1679 64.3901 50.1342 64.3968 50.0938C64.3968 50.0533 64.4035 50.0061 64.4035 49.9522L64.4169 49.9657ZM72.0643 48.6575C72.0643 48.4282 72.0241 48.226 71.9504 48.0574C71.8767 47.8888 71.7761 47.7405 71.6488 47.6191C71.5215 47.4977 71.3807 47.3831 71.2265 47.2954C71.0724 47.201 70.9048 47.1201 70.744 47.0459C70.5764 46.9718 70.4156 46.8908 70.2614 46.8167C70.1005 46.7425 69.9598 46.6616 69.8391 46.5672C69.7185 46.4795 69.618 46.3716 69.5442 46.257C69.4705 46.1424 69.4303 46.0008 69.4303 45.8389C69.4303 45.731 69.4504 45.6232 69.4906 45.522C69.5308 45.4209 69.5912 45.34 69.6649 45.2658C69.7453 45.1916 69.8391 45.1377 69.9598 45.0905C70.0804 45.05 70.2212 45.023 70.382 45.023C70.5563 45.023 70.7105 45.0433 70.8512 45.0905C70.992 45.1309 71.1126 45.1781 71.2131 45.2321C71.3137 45.286 71.4008 45.3332 71.4678 45.3737C71.5349 45.4141 71.5885 45.4344 71.622 45.4344C71.6421 45.4344 71.6622 45.4344 71.6756 45.4141C71.689 45.4006 71.7024 45.3804 71.7091 45.3534C71.7158 45.3265 71.7292 45.286 71.7292 45.2455C71.7292 45.2051 71.7292 45.1579 71.7292 45.1039C71.7292 45.0433 71.7292 45.0028 71.7292 44.9623C71.7292 44.9286 71.7225 44.8949 71.7158 44.8679C71.7158 44.841 71.7024 44.8207 71.6957 44.8073C71.689 44.7938 71.6689 44.7668 71.6421 44.7398C71.6153 44.7129 71.555 44.6724 71.4678 44.6252C71.3807 44.578 71.2735 44.5375 71.1595 44.4971C71.0456 44.4566 70.9249 44.4296 70.7909 44.4094C70.6636 44.3892 70.5362 44.3757 70.4022 44.3757C70.1542 44.3757 69.9196 44.4094 69.7051 44.4768C69.4906 44.5443 69.303 44.6454 69.1488 44.7735C68.9947 44.9017 68.874 45.0635 68.7802 45.2523C68.693 45.4411 68.6461 45.6569 68.6461 45.8996C68.6461 46.1424 68.6863 46.3379 68.7601 46.5065C68.8338 46.6751 68.9343 46.8234 69.055 46.9515C69.1756 47.0796 69.3164 47.1875 69.4705 47.2752C69.6247 47.3696 69.7855 47.4505 69.9464 47.5314C70.1072 47.6056 70.2681 47.6798 70.429 47.7539C70.5831 47.8281 70.7239 47.909 70.8445 47.9967C70.9652 48.0844 71.0657 48.1855 71.1394 48.3069C71.2131 48.4215 71.2534 48.5631 71.2534 48.7317C71.2534 48.88 71.2265 49.0216 71.1729 49.1363C71.1193 49.2576 71.0456 49.3588 70.945 49.4397C70.8445 49.5206 70.7239 49.588 70.5898 49.6285C70.4491 49.6757 70.3016 49.6959 70.1273 49.6959C69.9062 49.6959 69.7118 49.669 69.5442 49.615C69.3767 49.5611 69.2292 49.5071 69.1153 49.4464C68.9946 49.3858 68.8941 49.3318 68.8204 49.2779C68.7467 49.2239 68.6863 49.2037 68.6461 49.2037C68.6193 49.2037 68.5992 49.2037 68.5858 49.2172C68.5657 49.2307 68.5523 49.2441 68.5389 49.2711C68.5255 49.2981 68.5188 49.3318 68.5121 49.3723C68.5121 49.4127 68.5054 49.4734 68.5054 49.5341C68.5054 49.6285 68.5121 49.7027 68.5322 49.7566C68.5456 49.8106 68.5724 49.8578 68.6059 49.8915C68.6394 49.9252 68.6997 49.9724 68.7869 50.0263C68.874 50.0803 68.9812 50.1275 69.1153 50.1747C69.2426 50.2219 69.3901 50.2623 69.5576 50.2961C69.7252 50.3298 69.8995 50.3433 70.0938 50.3433C70.3686 50.3433 70.63 50.3095 70.8713 50.2286C71.1126 50.1545 71.3204 50.0398 71.4946 49.8915C71.6689 49.7431 71.8097 49.5611 71.9102 49.352C72.0107 49.1363 72.0576 48.9003 72.0576 48.6238L72.0643 48.6575ZM77.7748 50.0196L75.8378 44.6185C75.8378 44.6185 75.811 44.5578 75.7909 44.5375C75.7708 44.5173 75.7373 44.4971 75.7038 44.4836C75.6635 44.4701 75.6166 44.4634 75.5496 44.4566C75.4893 44.4566 75.4089 44.4566 75.315 44.4566C75.2279 44.4566 75.1542 44.4566 75.0938 44.4566C75.0335 44.4566 74.9866 44.4701 74.9531 44.4836C74.9129 44.4971 74.8861 44.5106 74.866 44.5308C74.8458 44.551 74.8324 44.578 74.819 44.6117L72.8753 50.0129C72.8485 50.0803 72.8418 50.1342 72.8351 50.1747C72.8351 50.2151 72.8418 50.2421 72.8686 50.2691C72.8887 50.2893 72.929 50.3028 72.9826 50.3095C73.0362 50.3163 73.1099 50.323 73.1971 50.323C73.2842 50.323 73.3512 50.323 73.3981 50.3163C73.4518 50.3163 73.492 50.3028 73.5188 50.2893C73.5456 50.2758 73.5724 50.2623 73.5858 50.2421C73.5992 50.2219 73.6126 50.2017 73.6193 50.1747L74.0952 48.7789H76.5013L76.9973 50.1949C77.0107 50.2219 77.0241 50.2421 77.0375 50.2623C77.0509 50.2826 77.0711 50.2961 77.0979 50.3028C77.1247 50.3163 77.1649 50.323 77.2252 50.323C77.2788 50.323 77.3526 50.323 77.4464 50.323C77.5402 50.323 77.6139 50.323 77.6676 50.3163C77.7212 50.3163 77.7614 50.2961 77.7882 50.2758C77.8083 50.2556 77.8217 50.2219 77.8217 50.1814C77.8217 50.141 77.8083 50.087 77.7815 50.0196H77.7748ZM74.2829 48.145L75.2815 45.2455L76.2869 48.145H74.2761H74.2829ZM82.1381 44.8073C82.1381 44.7533 82.1381 44.6994 82.1314 44.6589C82.1314 44.6185 82.1113 44.578 82.0979 44.5578C82.0844 44.5308 82.0643 44.5106 82.0442 44.4971C82.0241 44.4836 82.004 44.4768 81.9839 44.4768H79.3834C79.3164 44.4768 79.2493 44.4971 79.189 44.5443C79.1287 44.5915 79.0952 44.6724 79.0952 44.787V50.1679C79.0952 50.1679 79.0952 50.2084 79.1086 50.2286C79.122 50.2489 79.1421 50.2623 79.1689 50.2758C79.1957 50.2893 79.2359 50.2961 79.2896 50.3028C79.3432 50.3095 79.4035 50.3163 79.4705 50.3163C79.5509 50.3163 79.6113 50.3163 79.6582 50.3028C79.7051 50.2961 79.7453 50.2893 79.7721 50.2758C79.8056 50.2623 79.8257 50.2489 79.8324 50.2286C79.8458 50.2084 79.8525 50.1882 79.8525 50.1679V47.7472H81.8566C81.8767 47.7472 81.8968 47.7472 81.9169 47.727C81.937 47.7135 81.9504 47.6933 81.9705 47.6663C81.9839 47.6393 81.9973 47.6056 82.004 47.5651C82.004 47.5247 82.0107 47.4775 82.0107 47.4168C82.0107 47.3561 82.0107 47.3022 82.004 47.2617C82.004 47.2212 81.9839 47.1875 81.9705 47.1673C81.9571 47.1403 81.937 47.1269 81.9169 47.1134C81.8968 47.0999 81.8767 47.0999 81.8566 47.0999H79.8525V45.1242H81.9705C81.9705 45.1242 82.0107 45.1242 82.0308 45.1039C82.0509 45.0905 82.0643 45.0702 82.0844 45.05C82.0979 45.023 82.1113 44.9893 82.118 44.9489C82.118 44.9084 82.1247 44.8612 82.1247 44.8005L82.1381 44.8073ZM86.8834 49.9724C86.8834 49.9117 86.8834 49.8645 86.8767 49.8241C86.8767 49.7836 86.8566 49.7499 86.8432 49.7229C86.8298 49.6959 86.8097 49.6824 86.7896 49.669C86.7694 49.6555 86.7493 49.6487 86.7225 49.6487H84.4236V47.5719H86.3673C86.3673 47.5719 86.4142 47.5719 86.4343 47.5584C86.4544 47.5449 86.4678 47.5314 86.4812 47.5045C86.4946 47.4775 86.5014 47.4505 86.508 47.4101C86.508 47.3696 86.5147 47.3224 86.5147 47.2685C86.5147 47.2145 86.5147 47.1606 86.508 47.1201C86.508 47.0796 86.4946 47.0459 86.4812 47.019C86.4678 46.992 86.4477 46.9785 86.4343 46.965C86.4142 46.9515 86.3941 46.9448 86.3673 46.9448H84.4236V45.1242H86.689C86.689 45.1242 86.7359 45.1242 86.756 45.1039C86.7761 45.0905 86.7895 45.0702 86.8029 45.05C86.8164 45.023 86.8231 44.9893 86.8298 44.9489C86.8365 44.9084 86.8432 44.8612 86.8432 44.8073C86.8432 44.7466 86.8432 44.6994 86.8298 44.6589C86.8231 44.6185 86.8096 44.5847 86.8029 44.5578C86.7895 44.5308 86.7761 44.5106 86.756 44.4971C86.7359 44.4836 86.7158 44.4768 86.689 44.4768H83.941C83.874 44.4768 83.807 44.4971 83.7467 44.5443C83.6863 44.5915 83.6528 44.6724 83.6528 44.787V49.9724C83.6528 50.087 83.6796 50.1679 83.74 50.2151C83.8003 50.2623 83.8673 50.2826 83.9343 50.2826H86.7091C86.7091 50.2826 86.756 50.2826 86.7761 50.2623C86.7962 50.2489 86.8097 50.2286 86.8298 50.2017C86.8432 50.1747 86.8566 50.141 86.8633 50.1005C86.8633 50.0601 86.87 50.0129 86.87 49.9589L86.8834 49.9724ZM92.3257 50.0803C92.3123 50.0398 92.2855 49.9589 92.2453 49.851L91.7292 48.5699C91.6689 48.4215 91.6086 48.2934 91.5483 48.172C91.4879 48.0574 91.4276 47.9495 91.3606 47.8618C91.2936 47.7742 91.2198 47.6933 91.1461 47.6326C91.0657 47.5651 90.9853 47.5179 90.8847 47.4707C91.0523 47.4101 91.2064 47.3359 91.3472 47.255C91.4812 47.1673 91.6019 47.0662 91.7024 46.9448C91.8029 46.8302 91.8767 46.6886 91.9303 46.5402C91.9839 46.3851 92.0107 46.2098 92.0107 46.021C92.0107 45.8187 91.9839 45.6366 91.9236 45.4681C91.8633 45.2995 91.7761 45.1511 91.6622 45.023C91.5483 44.8949 91.4008 44.787 91.2332 44.7061C91.059 44.6252 90.8646 44.5645 90.6367 44.524C90.5563 44.5173 90.4692 44.5038 90.3753 44.4971C90.2748 44.4903 90.1542 44.4836 90.0134 44.4836H88.7869C88.7198 44.4836 88.6528 44.5038 88.5925 44.551C88.5322 44.5982 88.4987 44.6791 88.4987 44.7938V50.1747C88.4987 50.1747 88.4987 50.2219 88.5121 50.2354C88.5255 50.2556 88.5456 50.2691 88.5724 50.2758C88.5992 50.2893 88.6394 50.2961 88.693 50.3028C88.7467 50.3095 88.807 50.3163 88.8807 50.3163C88.9544 50.3163 89.0147 50.3163 89.0684 50.3028C89.1153 50.2961 89.1555 50.2893 89.1823 50.2758C89.2091 50.2623 89.2292 50.2489 89.2426 50.2354C89.256 50.2151 89.2627 50.1949 89.2627 50.1747V47.7H89.7788C89.9531 47.7 90.1072 47.727 90.2279 47.7809C90.3552 47.8349 90.4625 47.909 90.5563 48.0034C90.6501 48.0978 90.7306 48.2125 90.7976 48.3406C90.8646 48.4687 90.9316 48.6103 90.992 48.7721L91.5214 50.141C91.5349 50.1747 91.5483 50.2084 91.5617 50.2286C91.5818 50.2556 91.6019 50.2691 91.6287 50.2826C91.6622 50.2961 91.6957 50.3028 91.7493 50.3095C91.7962 50.3095 91.8633 50.3163 91.937 50.3163C92.0241 50.3163 92.0979 50.3163 92.1515 50.3095C92.2051 50.3095 92.2453 50.2961 92.2788 50.2826C92.3123 50.2691 92.3257 50.2556 92.3391 50.2354C92.3458 50.2151 92.3525 50.1949 92.3525 50.1747C92.3525 50.1477 92.3525 50.114 92.3324 50.0735L92.3257 50.0803ZM90.5362 47.0055C90.3887 47.0527 90.2145 47.0796 90.0067 47.0796H89.256V45.1174H89.9062C90.0603 45.1174 90.181 45.1174 90.2748 45.1309C90.3686 45.1377 90.4491 45.1511 90.5295 45.1781C90.7708 45.2455 90.9383 45.3602 91.0389 45.5153C91.1394 45.6704 91.193 45.8659 91.193 46.0952C91.193 46.2368 91.1729 46.3649 91.126 46.4863C91.0791 46.6076 91.0054 46.7088 90.9048 46.7964C90.8043 46.8841 90.6836 46.9515 90.5362 47.0055ZM94.8592 48.6305L94.9397 44.342C94.9397 44.3083 94.9397 44.2746 94.9196 44.2476C94.9062 44.2206 94.8861 44.2004 94.8525 44.1802C94.819 44.1599 94.7788 44.1464 94.7252 44.1397C94.6716 44.133 94.6046 44.1262 94.5241 44.1262C94.4437 44.1262 94.37 44.1262 94.3231 44.1397C94.2694 44.1464 94.2292 44.1599 94.1957 44.1802C94.1622 44.2004 94.1421 44.2206 94.1287 44.2476C94.1153 44.2746 94.1153 44.3083 94.1153 44.342L94.189 48.6305C94.189 48.6305 94.189 48.6777 94.2024 48.6912C94.2158 48.7115 94.2292 48.7249 94.256 48.7384C94.2828 48.7519 94.3164 48.7587 94.3566 48.7654C94.3968 48.7654 94.4504 48.7721 94.5107 48.7721C94.571 48.7721 94.6247 48.7721 94.6649 48.7654C94.7051 48.7654 94.7386 48.7519 94.7654 48.7384C94.7922 48.7249 94.8123 48.7115 94.819 48.6912C94.8324 48.671 94.8391 48.6508 94.8391 48.6305H94.8592ZM95 49.8375C95 49.7364 94.9933 49.6555 94.9799 49.588C94.9665 49.5206 94.9397 49.4667 94.9062 49.433C94.866 49.3925 94.819 49.3655 94.7587 49.352C94.6984 49.3318 94.6247 49.3251 94.5308 49.3251C94.437 49.3251 94.3633 49.3318 94.3029 49.352C94.2426 49.3655 94.1957 49.3925 94.1555 49.433C94.122 49.4667 94.0952 49.5206 94.0818 49.588C94.0684 49.6555 94.0617 49.7364 94.0617 49.8375C94.0617 49.9387 94.0684 50.0196 94.0818 50.0803C94.0952 50.1477 94.1153 50.1949 94.1555 50.2354C94.189 50.2758 94.2426 50.3028 94.3029 50.323C94.3633 50.3433 94.437 50.35 94.5308 50.35C94.6247 50.35 94.6984 50.3433 94.7587 50.323C94.819 50.3095 94.866 50.2758 94.9062 50.2354C94.9397 50.1949 94.9665 50.141 94.9799 50.0803C94.9933 50.0129 95 49.9319 95 49.8375Z" fill="#C6C6C5"/>
<path d="M94.8659 17.8083C94.8659 27.7609 86.8565 35.8458 77.0174 35.8458C67.185 35.8458 59.189 27.7407 59.1957 17.7948C59.1957 15.7921 59.5375 13.8029 60.1809 11.9284H66.7158C65.7171 13.7085 65.1943 15.7045 65.1943 17.7948C65.1943 24.4232 70.5027 29.8243 77.0308 29.8243C83.5657 29.8243 88.8807 24.4366 88.8874 17.8083C88.8874 11.2069 83.693 6.03499 77.0509 6.03499H41.1997C39.7654 6.0215 38.5992 7.19478 38.5992 8.63779C38.5992 9.28512 38.8271 9.89198 39.2493 10.364L51.5817 18.0645C54.5777 19.7368 56.4343 22.906 56.4276 26.3517C56.4276 31.5573 52.2252 35.7919 47.0509 35.8256L23.1367 35.8121V25.3065H30.2145V29.7906L47.0107 29.7973C48.9008 29.7906 50.4356 28.2397 50.4356 26.3382C50.4356 25.0705 49.7453 23.9039 48.6327 23.2971L48.4919 23.2162L35.7976 15.2931L35.315 14.9223C33.5925 13.2972 32.6005 10.9978 32.6072 8.6243C32.5938 3.87048 36.4477 0 41.1863 0H77.0375C87.0375 0.013486 94.8659 7.82863 94.8659 17.8083Z" fill="#C6C6C5"/>
<path d="M0 6.01476L26.6689 6.02151L26.6756 0.0674357L0 0.0539497V6.01476Z" fill="#C6C6C5"/>
<path d="M9.78546 35.7379H16.8632L16.8699 10.4786H9.79886L9.78546 35.7379Z" fill="#C6C6C5"/>
</svg>
